<?xml version="1.0" encoding="utf-8"?>
<!-- Generator: Adobe Illustrator 25.0.1, SVG Export Plug-In . SVG Version: 6.00 Build 0)  -->
<svg version="1.1" id="Layer_1" xmlns="http://www.w3.org/2000/svg" xmlns:xlink="http://www.w3.org/1999/xlink" x="0px" y="0px"
	 viewBox="0 0 206.76 84.51" style="enable-background:new 0 0 206.76 84.51;" xml:space="preserve">
<style type="text/css">
	.st0{clip-path:url(#SVGID_2_);fill:#252B74;}
	.st1{clip-path:url(#SVGID_2_);fill:none;stroke:#252B74;stroke-width:0.319;stroke-miterlimit:2.46;}
	.st2{fill:#D7242F;}
	.st3{fill:none;stroke:#D7242F;stroke-width:0.354;}
</style>
<g>
	<defs>
		<rect id="SVGID_1_" x="0.36" y="0.47" width="205.86" height="97.05"/>
	</defs>
	<clipPath id="SVGID_2_">
		<use xlink:href="#SVGID_1_"  style="overflow:visible;"/>
	</clipPath>
	<path class="st0" d="M204.06,70.67c1.33-2.14,2-5.06,2-8.75c0-3.69-0.67-6.6-2-8.74c-1.33-2.14-3.13-3.21-5.38-3.21
		c-2.26,0-4.05,1.07-5.38,3.2c-1.33,2.13-1.99,5.05-1.99,8.75c0,3.71,0.66,6.63,1.99,8.76c1.33,2.13,3.12,3.2,5.38,3.2
		C200.94,73.88,202.73,72.81,204.06,70.67 M201.92,55c0.77,1.63,1.15,3.94,1.15,6.92c0,2.99-0.38,5.3-1.15,6.95
		c-0.77,1.64-1.85,2.46-3.24,2.46c-1.38,0-2.46-0.82-3.23-2.46c-0.77-1.64-1.15-3.96-1.15-6.95c0-2.98,0.38-5.28,1.15-6.92
		c0.77-1.63,1.84-2.45,3.23-2.45C200.07,52.55,201.15,53.37,201.92,55 M185.31,72.66c0.58,0.59,1.35,0.88,2.3,0.88
		c0.95,0,1.72-0.29,2.31-0.88c0.59-0.59,0.88-1.36,0.88-2.32c0-0.96-0.29-1.74-0.88-2.32s-1.36-0.88-2.32-0.88
		c-0.94,0-1.71,0.3-2.29,0.9c-0.59,0.6-0.88,1.37-0.88,2.31C184.43,71.29,184.72,72.07,185.31,72.66 M181.09,73.29
		c0.29,0,0.52-0.11,0.7-0.32c0.18-0.21,0.29-0.5,0.32-0.87l0.14-1.39c0-0.04,0.01-0.1,0.02-0.19c0.01-0.09,0.02-0.15,0.02-0.19
		c0-0.46-0.11-0.82-0.34-1.08c-0.23-0.26-0.54-0.4-0.94-0.4c-0.4,0-0.71,0.14-0.95,0.41c-0.23,0.27-0.38,0.66-0.42,1.18h-8.23
		l2.22-2.13c0.55-0.55,1.35-1.31,2.4-2.29c4.08-3.9,6.12-7.03,6.12-9.39c0-1.87-0.67-3.45-2.01-4.74c-1.34-1.29-3.01-1.93-5-1.93
		c-1.19,0-2.35,0.22-3.48,0.66c-1.13,0.44-2.09,1.03-2.86,1.78c-0.23,0.23-0.38,0.44-0.47,0.64c-0.08,0.2-0.13,0.51-0.13,0.95
		c0,0.75,0.09,1.25,0.27,1.51c0.18,0.26,0.49,0.4,0.92,0.4c0.55,0,1.05-0.4,1.5-1.21c0.16-0.23,0.27-0.39,0.34-0.49
		c0.42-0.53,0.98-0.95,1.67-1.26c0.69-0.31,1.41-0.47,2.17-0.47c1.17,0,2.12,0.4,2.85,1.2c0.73,0.8,1.1,1.84,1.1,3.12
		c0,1.79-2.08,4.64-6.23,8.56c-0.66,0.62-1.17,1.1-1.51,1.44l-0.52,0.5c-2.31,2.15-3.46,3.62-3.46,4.4c0,0.54,0.15,0.94,0.46,1.2
		c0.31,0.26,0.78,0.39,1.42,0.39H181.09z"/>
	<path class="st1" d="M204.06,70.67c1.33-2.14,2-5.06,2-8.75c0-3.69-0.67-6.6-2-8.74c-1.33-2.14-3.13-3.21-5.38-3.21
		c-2.26,0-4.05,1.07-5.38,3.2c-1.33,2.13-1.99,5.05-1.99,8.75c0,3.71,0.66,6.63,1.99,8.76c1.33,2.13,3.12,3.2,5.38,3.2
		C200.94,73.88,202.73,72.81,204.06,70.67z M201.92,55c0.77,1.63,1.15,3.94,1.15,6.92c0,2.99-0.38,5.3-1.15,6.95
		c-0.77,1.64-1.85,2.46-3.24,2.46c-1.38,0-2.46-0.82-3.23-2.46c-0.77-1.64-1.15-3.96-1.15-6.95c0-2.98,0.38-5.28,1.15-6.92
		c0.77-1.63,1.84-2.45,3.23-2.45C200.07,52.55,201.15,53.37,201.92,55z M185.31,72.66c0.58,0.59,1.35,0.88,2.3,0.88
		c0.95,0,1.72-0.29,2.31-0.88c0.59-0.59,0.88-1.36,0.88-2.32c0-0.96-0.29-1.74-0.88-2.32s-1.36-0.88-2.32-0.88
		c-0.94,0-1.71,0.3-2.29,0.9c-0.59,0.6-0.88,1.37-0.88,2.31C184.43,71.29,184.72,72.07,185.31,72.66z M181.09,73.29
		c0.29,0,0.52-0.11,0.7-0.32c0.18-0.21,0.29-0.5,0.32-0.87l0.14-1.39c0-0.04,0.01-0.1,0.02-0.19c0.01-0.09,0.02-0.15,0.02-0.19
		c0-0.46-0.11-0.82-0.34-1.08c-0.23-0.26-0.54-0.4-0.94-0.4c-0.4,0-0.71,0.14-0.95,0.41c-0.23,0.27-0.38,0.66-0.42,1.18h-8.23
		l2.22-2.13c0.55-0.55,1.35-1.31,2.4-2.29c4.08-3.9,6.12-7.03,6.12-9.39c0-1.87-0.67-3.45-2.01-4.74c-1.34-1.29-3.01-1.93-5-1.93
		c-1.19,0-2.35,0.22-3.48,0.66c-1.13,0.44-2.09,1.03-2.86,1.78c-0.23,0.23-0.38,0.44-0.47,0.64c-0.08,0.2-0.13,0.51-0.13,0.95
		c0,0.75,0.09,1.25,0.27,1.51c0.18,0.26,0.49,0.4,0.92,0.4c0.55,0,1.05-0.4,1.5-1.21c0.16-0.23,0.27-0.39,0.34-0.49
		c0.42-0.53,0.98-0.95,1.67-1.26c0.69-0.31,1.41-0.47,2.17-0.47c1.17,0,2.12,0.4,2.85,1.2c0.73,0.8,1.1,1.84,1.1,3.12
		c0,1.79-2.08,4.64-6.23,8.56c-0.66,0.62-1.17,1.1-1.51,1.44l-0.52,0.5c-2.31,2.15-3.46,3.62-3.46,4.4c0,0.54,0.15,0.94,0.46,1.2
		c0.31,0.26,0.78,0.39,1.42,0.39H181.09z"/>
	<path class="st0" d="M33.65,26.44L27.12,6.45l-6.67,19.99c-0.1,0.29-0.15,0.46-0.15,0.51c0,0.44,0.36,0.65,1.09,0.65h11.53
		c0.58,0,0.87-0.19,0.87-0.58C33.79,26.92,33.75,26.73,33.65,26.44 M38.87,41.27l-2.61-7.13c-0.29-0.77-0.59-1.26-0.91-1.45
		c-0.31-0.19-0.96-0.29-1.92-0.29H20.52c-0.97,0-1.63,0.17-1.99,0.51c-0.36,0.34-0.83,1.26-1.41,2.76l-2.1,5.6
		c-0.19,0.54-0.29,1.04-0.29,1.53c0,1.55,0.94,2.33,2.83,2.33c0.48,0,1.17-0.06,2.07-0.17c0.89-0.11,1.56-0.17,1.99-0.17
		c1.98,0,2.97,0.85,2.97,2.54c0,1.6-1.09,2.39-3.26,2.39c-0.39,0-0.92-0.04-1.59-0.13l-3.63-0.41c-0.68-0.08-1.79-0.12-3.34-0.12
		c-1.69,0-2.88,0.04-3.55,0.11L6.16,49.5c-1.35,0.15-2.35,0.22-2.97,0.22c-1.89,0-2.83-0.8-2.83-2.39c0-1.69,0.92-2.54,2.76-2.54
		c0.39,0,0.68,0.11,0.87,0.34h0.94c1.31,0,2.3-0.51,2.97-1.53c0.29-0.39,0.77-1.53,1.45-3.42L22.84,3.53
		c0.77-2.04,2.29-3.06,4.57-3.06c2.22,0,3.7,1.02,4.42,3.05l12.98,36.01c0.82,2.28,1.57,3.77,2.25,4.5c0.68,0.73,1.64,1.09,2.9,1.09
		c0.39,0,0.68-0.04,0.87-0.11l2.03-0.22c1.84,0,2.76,0.8,2.76,2.39c0,1.7-0.92,2.54-2.76,2.54c-0.53,0-1.23-0.05-2.1-0.15
		c-3.05-0.35-5.32-0.52-6.82-0.52c-1.79,0-4.69,0.18-8.7,0.53c-1.01,0.09-1.79,0.13-2.32,0.13c-1.93,0-2.9-0.82-2.9-2.47
		c0-1.64,1.06-2.47,3.19-2.47c0.44,0,1.08,0.06,1.92,0.17c0.85,0.11,1.49,0.17,1.92,0.17c1.59,0,2.39-0.65,2.39-1.96
		C39.45,42.97,39.26,42.34,38.87,41.27"/>
	<path class="st0" d="M61.14,15.26v1.99c2.52-3.55,5.89-5.32,10.11-5.32c3.39,0,6.14,0.96,8.25,2.87c2.11,1.92,3.16,4.38,3.16,7.39
		c0,2.13-0.53,3.87-1.6,5.2c-1.06,1.33-2.47,2-4.21,2c-1.11,0-2.06-0.34-2.83-1.02c-0.77-0.68-1.16-1.5-1.16-2.47
		c0-0.77,0.29-1.46,0.87-2.07c0.58-0.6,1.25-0.91,2.02-0.91c0.14,0,0.46,0.07,0.94,0.2c0.29-0.58,0.43-1.11,0.43-1.59
		c0-1.4-0.62-2.58-1.85-3.55c-1.23-0.97-2.76-1.45-4.6-1.45c-3.76,0-6.27,1.69-7.53,5.08C62.39,23.69,62,26.83,62,31.04v4.79
		c0,3.24,0.02,5.05,0.07,5.44c0.24,2.75,0.99,4.13,2.25,4.13c0.63,0,1.28-0.09,1.96-0.27c0.53-0.13,0.99-0.2,1.38-0.2
		c1.55,0,2.33,0.76,2.33,2.29c0,1.67-0.99,2.51-2.97,2.51h-0.29c-0.72,0-1.82-0.08-3.3-0.24c-1.48-0.16-2.57-0.24-3.3-0.24
		c-1.93,0-3.46,0.05-4.57,0.15l-4.06,0.33c-1.98,0-2.97-0.85-2.97-2.54c0-1.5,0.93-2.25,2.79-2.25c0.49,0,0.86,0.03,1.1,0.08
		l1.1,0.23c0.49,0.11,0.83,0.16,1.03,0.16c1.22,0,1.88-1.11,1.98-3.33v-3.7L56.32,21.9c-0.14-2.85-0.87-4.28-2.18-4.28
		c-0.39,0-0.92,0.06-1.6,0.19c-0.68,0.13-1.21,0.19-1.6,0.19c-1.6,0-2.4-0.76-2.4-2.29c0-1.67,1.04-2.51,3.11-2.51
		c0.48,0,1.21,0.06,2.17,0.18c0.97,0.12,1.69,0.18,2.17,0.18c0.38,0,1.01-0.06,1.88-0.18c0.39-0.12,0.85-0.18,1.38-0.18
		C60.51,13.2,61.14,13.89,61.14,15.26"/>
	<path class="st0" d="M103.1,39.44V34.8c0.05-1.98,0.92-2.97,2.6-2.97c1.68,0,2.53,1.11,2.53,3.33c0,5.27-0.67,8.94-2.02,11.02
		c-1.83,2.8-4.83,4.2-9.01,4.2c-3.85,0-6.59-1.23-8.22-3.7c-1.2-1.79-1.8-4.84-1.8-9.14V20.12c0-1.02-0.47-1.52-1.41-1.52h-2.38
		c-0.79,0-1.45-0.25-1.97-0.76c-0.52-0.5-0.78-1.12-0.78-1.84c0-0.67,0.25-1.27,0.76-1.8c0.51-0.53,1.08-0.79,1.71-0.79h2.83
		c0.82,0,1.23-0.46,1.23-1.38V4.56c0-1.84,0.95-2.75,2.84-2.75c1.75,0,2.62,0.92,2.62,2.75v7.75c0,0.73,0.43,1.09,1.3,1.09h7.88
		c1.83,0,2.75,0.84,2.75,2.53c0,1.78-0.99,2.67-2.96,2.67h-7.95c-0.68,0-1.01,0.51-1.01,1.52v17.85c0,5.08,1.7,7.62,5.08,7.62
		C101.16,45.59,102.95,43.54,103.1,39.44"/>
	<path class="st0" d="M123.58,11.94c3.23,0,5.93,0.85,8.1,2.56v-0.29c0-1.78,0.78-2.67,2.33-2.67c1.6,0,2.4,0.78,2.4,2.33
		c0,0.29-0.05,1.02-0.13,2.18c-0.18,0.97-0.27,1.94-0.27,2.91c0,0.58,0.07,1.43,0.2,2.54c0.13,1.12,0.2,1.96,0.2,2.54
		c0,1.84-0.79,2.76-2.37,2.76c-1.53,0-2.32-0.78-2.36-2.33v-2.41c-0.05-1.46-0.89-2.71-2.51-3.75c-1.62-1.05-3.53-1.57-5.7-1.57
		c-2.23,0-4.1,0.57-5.6,1.71c-1.5,1.14-2.25,2.55-2.25,4.25c0,3.1,2.13,4.94,6.38,5.52l4.21,0.58c8.22,1.12,12.33,4.53,12.33,10.24
		c0,3.49-1.32,6.31-3.97,8.46c-2.65,2.15-6.12,3.23-10.41,3.23c-4,0-7.47-1.15-10.41-3.44v1.37c0,1.73-0.82,2.6-2.46,2.6
		c-1.78,0-2.68-0.99-2.68-2.98c0,0.34,0.15-0.92,0.44-3.78c0.1-0.68,0.14-1.36,0.14-2.03c0-1.16-0.1-2.25-0.29-3.27
		c-0.19-1.02-0.29-1.82-0.29-2.4c0-1.69,0.77-2.54,2.32-2.54c1.01,0,1.65,0.24,1.92,0.73c0.26,0.49,0.42,1.78,0.47,3.86
		c0.05,2.09,1.14,3.79,3.26,5.1c2.13,1.31,4.83,1.97,8.11,1.97c2.36,0,4.32-0.61,5.86-1.82c1.54-1.21,2.32-2.74,2.32-4.58
		c0-3.29-2.61-5.2-7.83-5.74c-4.98-0.53-8.77-1.51-11.38-2.94c-2.61-1.43-3.91-3.93-3.91-7.52c0-3.39,1.28-6.14,3.84-8.24
		C116.15,12.99,119.48,11.94,123.58,11.94"/>
</g>
<path class="st2" d="M74.01,75.72l-0.13,0.04l0.08,0.29L74.01,75.72z M73.69,78.02l-0.05-0.24l-0.22,0.02l-0.03,0.22L73.69,78.02z
	 M73.43,75.39l-0.11,0.01l0.01-0.19l-0.19-0.04l0.03-0.25l-0.18,0.16l-0.07,0.42l0.24-0.08l-0.11,0.23l0.38-0.06L73.43,75.39z
	 M72.31,66.06l-0.04-0.13l-0.14-0.07l0.04,0.08L72.31,66.06z M72.23,78.28l-0.41,0.01l-0.01,0.17L72.23,78.28z M71.79,78.57
	l-0.03-0.08l-0.06-0.05l-0.16,0.04l0.01,0.14l-0.19-0.01l-0.07,0.14l0.28,0.03l0.16-0.07l0.05-0.09L71.79,78.57z M70.59,69.47
	l-0.08-0.24l-0.32-0.16l0.05,0.24l0.14,0.29L70.59,69.47z M66.75,65.29l-0.22,0.02l0.1-0.12l0.11-0.01L66.75,65.29z M66.89,71.4
	l-0.21-0.2l-0.05-0.27L66.4,70.9l-0.13,0.09l0.06,0.3l-0.1,0.09l0.02,0.19L66.89,71.4z M76.45,77.67l-0.07,0.45l-0.24,0.3
	l-0.96,0.34l-0.33,0.03l-0.02-0.19l-0.12-0.15l-0.21,0.08l-0.27,0.03l-0.27,0.05l-0.12-0.37l-0.46,0.1l-0.31-0.05l-0.07,0.09
	l-0.1-0.16l-0.28-0.08l0.03,0.27l-0.22,0.02l0.13,0.45l-1.34,0.05l0.05-0.09l-0.12-0.07l-0.05,0.06l-0.32,0.06l-0.4,0.12l-0.01,0.17
	l-1.08,0.16l-0.55,0l-0.81-0.14l-0.3-0.22l-0.13-0.51l0.01-0.22l0.82-0.82l0.07-0.11l0.07-0.37l-0.07-0.65l0.3-0.06l0.02-0.39
	l-0.19-0.23l-0.33-0.57l-0.02-0.19L68,74.64l-0.32-0.71l-0.18-0.15l0.08-0.01l-0.03-0.3l-0.27,0l0.04-0.14l0.08-0.06l-0.13-0.45
	l0.11-0.04l-0.03-0.08L67.2,72.6l-0.3-0.82l-0.28-0.05l-0.04,0.17l0.12,0.1l0.14,0.01l-0.02,0.38l0.1-0.06l0.2,0.09l-0.18,0.1
	l-0.27-0.22l0.03-0.22l-0.11,0.01l-0.19-0.26L65.36,71l-0.05-0.27l-0.01-0.38l0.07-0.45l0.12-0.15l0.79-0.63l0.38-1.11l0.06,0.08
	l0.12-0.15l0-0.33l-0.19,0.05l-0.08-0.29l0.01-0.17l0.2-0.73l-0.09-0.07l-0.01-0.08l0.13-0.07l0.05-0.31l0.08-0.01l0.06,0.3
	l-0.02,0.36l-0.05,0.09l0.04,0.11l-0.07,0.12l0.04,0.13l-0.12,0.15l0.04,0.13l-0.06,0.23l0.14-0.01l0.07-0.14l0.05-0.36l0.25-0.27
	l0.02-0.39l-0.19-1.05l0.18-0.1l0.04-0.17l0.21-0.1l0.15-0.15l0.19,0.04l-0.29-0.41l-0.5,0.24l-0.39-0.1l-0.1,0.07l-0.08,0.06
	l-0.02,0.39l-0.24,0.05l0.03-0.22l-0.13-0.23L66,64.08l-0.2-0.34l-0.42-0.37l-0.71-0.29l-0.14-0.29l-0.1-0.48l0.06-0.47l0.17-0.21
	l1.28-0.35l1.67-0.06l0.1,0.24l0.36,0.05l0.1,0.13l0.53-0.13l-0.02,0.06l0.48-0.1l0.31,0.08l0.28,0.05l-0.02-0.16l0.16,0.2
	l0.39,0.04l0.17,0.31l0.07-0.09l-0.12-0.1l0.25-0.02l0.1,0.51l0.58,0.27l-0.05,0.09l0.26,0.11l0.12,0.34l0.12,0.13l-0.01,0.22
	l0.2,0.06l0.05,0.22l0.14,0.01l0.09,0.1l-0.09,0.2l0.11-0.01l-0.06,0.25l0.22-0.02l0.07,0.13l0.17,0.04l0.01,0.08l-0.19,0.02
	l-0.01-0.11l-0.86-0.05l-0.03,0.2l0.1,0.21l-0.09,0.17l0.09,0.32l-0.19,0.02l0.12,0.34l0.06,0.08l0.01,0.14l0.33,0.05l-0.01-0.14
	l-0.14,0.01l-0.02-0.16l0.14-0.01L72,65.71l0.38-0.06l-0.04-0.35l-0.08,0.04l-0.01-0.11l-0.17-0.04l-0.04-0.11l0.38-0.01l-0.1-0.18
	l-0.23-0.09l0.35-0.04l0.06,0.35l-0.04,0.42l0.06,0.08l0.21-0.1l0.06,0.57l-0.11,1.08l-0.21,0.65l-0.22,0.27l-0.09-0.13l-0.13,0.04
	l-0.06,0.25l-0.07-0.18l-0.28,0.19l-0.01-0.08l0.1-0.12L71.57,68l-0.48,0.38l-0.12,0.12l-0.02,0.11l0.04,0.16l-0.24-0.22l-0.25,0.27
	l0.12,0.12l-0.1,0.15l0.24,0.44l-0.31,0.14l-0.11,0.23l0.32,0.16l0.79,0.47l0.55,0.6l0.39,0.62l-0.19,0.05l0.17,0.29l0.24,0.25
	l-0.01,0.41l0.17,0.04l-0.1,0.06l0.19,0.31l-0.01,0.14l0.21,0.17l-0.03,0.28l0.15,0.12l-0.04,0.11l0.08,0.02l0.05,0.24l0.11-0.01
	l0.08,0.24l-0.09,0.17l0.04,0.11l-0.21,0.13l0.2,0.06l0,0.05L73.5,75l0.13,0.21l-0.07,0.09l0.04,0.13l0.37-0.12l0.07-0.42l0.06,0.32
	l0.31,0.38l0.59,0.96l0.13,0.18l0.23,0.14l0.98,0.43l0.04,0.08L76.45,77.67z M63.87,79.24l-0.21-0.2l-0.14,0.01l-0.05,0.09
	l0.07,0.13L63.87,79.24z M63.65,68.89l-0.01-0.11l-0.12-0.13l-0.48,0.43l-0.02,0.31l0.19,0.01l0.08-0.04l0.04-0.11l-0.13-0.21
	l0.31,0.05L63.65,68.89z M62.72,79.22l-0.23-0.11l-0.27,0.27l0.14-0.01l0.18,0.12l0.18-0.13L62.72,79.22z M62.12,63.7l-0.01-0.14
	l-0.11,0.01l0.01,0.14L62.12,63.7z M62.01,63.76l-0.14-0.01l-0.06,0.17l0.16-0.02L62.01,63.76z M61.91,64.13l-0.09-0.1l-0.13,0.07
	l-0.1,0.39l0.17,0.06l0.16-0.02l-0.01-0.11l-0.14-0.04L61.91,64.13z M61.76,64.75l-0.23-0.11l0.07,0.16l-0.31-0.05l-0.05,0.28
	l0.27,0.22l-0.24,0.08l-0.09,0.2l0.23,0.09l0.19-0.32l0.01-0.22l-0.05,0l-0.07-0.13l0.12,0.1l0.16-0.02L61.76,64.75z M61.51,79.42
	l-0.15-0.1l-0.25,0.24l0.3-0.03L61.51,79.42z M61.36,63.55l-0.1-0.15l-0.35,0.31l0.01,0.11l0.06,0.08l0.06,0.05l0.08,0.02l0.23-0.13
	l-0.07-0.16L61.36,63.55z M57.67,62.32l-0.19,0.02l0.02,0.25l0.16-0.07L57.67,62.32z M57.45,62.51l-0.12-0.1l-0.24,0.11l0.23,0.06
	L57.45,62.51z M58.03,63.74l-0.23-0.11l0.07-0.14l0.08-0.01l-0.1-0.16l-0.2-0.12l-0.14,0.54l-0.06-0.1l-0.22,0.05l-0.14-0.29
	l-0.16,0.1l0.04,0.08l0.36,0.29l0.39,0.02l0.02,0.22l0.17,0.07l0.02-0.33L58.03,63.74z M66.62,78.72l-0.02,0.33l-0.22,0.24
	l-0.44,0.24l-0.64,0.2l-3.36,0.17l-1.11,0.14l0.1-0.15l-0.06-0.32l0.13-0.04l-0.62,0.12l-0.24-0.22l-0.68,0.29l-0.46,0.32l-0.09-0.1
	l-0.21,0.38l-0.27,0l-0.81-0.11l-0.18-0.17l-0.16-0.45l0-0.3l0.1-0.09l0.83-0.49l0.2-0.18l0.24-1.48l-0.01-0.14l0.08-0.34
	l-0.15-0.15l0.09-0.15l0.39,0.04l0.13-0.4l-0.17-0.07l0.14-0.21l0.03-0.3l-0.12-0.13l-0.01-0.14L58.74,75l-0.02,0.33l-0.22,0.02
	l0.19-0.07l-0.4-0.13l-0.21-2.12l0.1-0.07l-0.08,0.01l-0.02-0.19l0.26-0.11l-0.1-0.43l-0.09-0.07l0.06-0.2l-0.09-0.1l0.39,0.07
	l-0.27-0.19l0.11-0.26l-0.19-0.01l0.16-0.29l-0.15-0.09l-0.03-0.35l0.1-0.12l-0.14-0.34l-0.03-0.3l-0.11-0.02l0.05-0.06l-0.02-0.22
	l0.13-0.04l-0.08-0.29l-0.1-0.24l-0.26-0.17l-0.15-1.52l0.13-0.04l-0.01-0.36l0.05-0.01l-0.05-0.21l-0.16,0.07l-0.09-0.68l0.12-0.12
	l0.05-0.03l0.2,0.06l0.11-0.28l0.01-0.14l-0.04-0.16l-0.06-0.1l-0.21-0.2l0.21-0.1l-0.2-0.06l-0.05-0.19l0.14,0.01l-0.07-0.19
	l0.19-0.26l0.11-0.01l-0.62-0.46l-0.06-0.02l-0.37,0.12l-0.29-0.16l-0.73-0.17l-0.21-0.47l0.04-0.42l0.2-0.24l0.55-0.22l0.32-0.06
	l0.15,0.37l0.15-0.15l-0.08-0.27l0.27-0.08l1.26-0.04l0.07,0.1l0.05-0.09l0.16-0.02l0.21,0.14l0.01-0.14l0.22-0.02l0.21,0.17
	l-0.23,0.19l0.15,0.15l0.04-0.11l0.14-0.01l0.07-0.12l0.2,0.06l0.17-0.21l0.29-0.17l0.01,0.08l0.5,0.09l0.07-0.12l0.3,0l0.18-0.1
	l0.24,0.22l0.19,0.01l-0.02-0.19l0.31,0.05l0.18,0.12l0.07-0.12l-0.06-0.35l0.3-0.06l0.69,0.01L63.46,62l0.04,0.11l0.58,5.32
	l-0.17,0.18l0.16-0.02l0.03,0.27L64,68.04l0.03,0.27l-0.39,0.18l0.11,0.26l0.16-0.04l0.16-0.32l0.72,6.49l-0.14,0.01l0.15,0.15
	l0.08,1.61l-0.07,0.09l-0.12,0.45L64.4,77.1l-0.03,0.25l0.23,0.06l0,0.52l-0.25-0.06l0.19-0.27l-0.12-0.15l-0.13,0.34l-0.32,0.09
	l0.17,0.07l-0.01,0.17l0.18,0.17l0.11-0.01l0.01-0.19l0.14-0.01l0.31,0.13l0-0.33l0.39,0.04l0.04,0.16l0.33,0.05l0.12-0.15
	l0.32,0.16l0.37,0.13L66.62,78.72z"/>
<path class="st2" d="M91.3,76.94l-0.07,0.14l-0.27,0.03L91.3,76.94z M91.4,71.5l0.1,3.23l0.16,1.93l-0.06,0.23l-0.15,0.15
	l-0.02-0.16l0.05-0.09l-0.06-0.1l-0.24,0.08l-0.12-0.15l-0.22,0.02l-0.08,0.31l-0.36-0.27l-0.36,0.23l-0.91,0.23l-0.38-0.24
	l-0.11-0.02l-0.69,0.18l0.04,0.11l-0.24,0.05l-0.02,0.08l-0.57,0.08l-0.8,0.27l-0.32,0.06l-0.35-0.18l-0.15-0.18l-0.18-0.67
	l0.07-0.72l0.1-0.12l1.33-0.71l0.23-0.16l0.1,0.18l0.24-0.05l0.2,0.06l0.13-0.31l0.34-0.12l0.01-0.17l0.24-0.11l0.43-0.07l0.07-0.09
	l0.05-0.09l-0.03-0.3l-0.22,0.02l-0.01-0.11l0.12-0.15l0.16-0.02l-0.02-0.22l0.24-0.05l-0.09-0.1l-0.13,0.07L89,73.08l0.19,0.31
	l0.03-0.25l-0.18-0.12l0.37-0.72l0.52-0.85l0.2-0.16l0.32-0.09l0.55,0.06l0.29,0.14L91.4,71.5z M88.24,70.99l-0.03,0.5l-0.22,0.24
	l-0.48,0.18l-0.36-0.05l-0.15-0.09l-1.08-1.51l-1.13-0.85l-0.2-0.31l-0.1-0.43l0.12-0.75l0.14-0.23l0.63-0.58l0.01,0.14l0.25,0.03
	l-0.03-0.3l0.42-0.18l-0.02-0.52l-0.1-0.16l0.42-1.06l0.08-0.06l0.37-0.12l0.55,0.06l0.18,0.15l0.18,0.75l0.09,1.47l0.02,1.01
	l0.07,0.46l-0.07,0.12l-0.04,0.39l0.16-0.02l0.08,0.29L88.24,70.99z M90.08,63.97L90,64.34l-0.17,0.21l-0.43,0.12l-0.61-0.08
	l-0.12-0.07l-0.93-1.09l-1.26-1.14l0.18-0.15l-0.18-0.12l-0.05,0.09l-0.19,0.05l-0.35-0.21l0.36-0.01l-0.31-0.05l-0.24,0.05
	l-1.59-0.5l-0.09-0.07l-0.14-0.26l-0.15-0.42l-0.01-0.38l0.04-0.39l0.07-0.12l0.18-0.1l0.32-0.06l0.01,0.08l0.28,0.06l0.07-0.12
	l0.15,0.09l0.26-0.16l0.32,0.16l0.02-0.11l0.19-0.05l0.16,0.2l0.11-0.04l0.06,0.05l0.25-0.24l1.3-0.16l1.4-0.22l0.14,0.01l0.21,0.17
	l0.15,0.37l0.05,0.52l-0.19,0.07l-0.04,0.2l0.1-0.07l-0.14,0.26l-0.07,0.42l0.12,0.35l0.09,0.07l0.25,0.06l0.07,0.46l-0.13-0.21
	l-0.2,0.21l-0.12-0.37l-0.05,0.33l0.2,0.06l0.05,0.24l0.27-0.08L90.08,63.97z M82.71,67.75l-0.21-0.2l0.17,0.31L82.71,67.75z
	 M82.38,77.19l-0.02-0.22l-0.31-0.11l-0.07,0.12l0.04,0.13l0.15,0.09L82.38,77.19z M82.42,77.57l-0.01-0.11l-0.44-0.06L82.42,77.57z
	 M82.5,62.58l-0.01-0.11l-0.34-0.13L82,62.52l-0.11-0.04l-0.11,0.31L82,63.02l0.18,0.17l0.34-0.14l-0.01-0.11l-0.17-0.09l-0.04-0.11
	l0.18-0.1L82.5,62.58z M78.42,75.41l-0.12,0.15l-0.08,0.04l-0.05-0.21l-0.07-0.16l-0.01-0.11l0.14,0.01l0.04,0.16L78.42,75.41z
	 M77.78,70.6l-0.11-0.02l-0.03,0.22l0.09,0.05L77.78,70.6z M77.01,65.57l-0.14,0.01l0.02,0.16L77,65.73L77.01,65.57z M83.01,61.05
	l0.23,3.46l-0.42-0.04l0.05,0.21l-0.43-0.18l0.01,0.08l-0.08,0.01l0.3,0.3l0.66,0.02l-0.01,0.17l-0.11-0.04l0.14,0.32l-0.25-0.03
	l0.06,0.3l0.29,0.41l0.04,0.11l0.05,1.07l-0.25-0.08l-0.06,0.23l0.22-0.02l0.16,0.23l-0.01,0.14l-0.2-0.09l-0.18,0.07L83.26,68
	l-0.12,0.15l0.05,0.21l-0.07,0.14l0.15,0.12l-0.19,0.24l-0.19-0.01l-0.15,0.73l0.28,0.06l0.46-0.37l-0.06-0.08l0.07-0.39l0.17-0.21
	l0.27,2.14l0.43,4.87l-0.25,0.02l-0.08,0.04l0.04,0.11l-0.08,0.31l0.15,0.09l0.35-0.04l0.07,1.01l-0.04,0.39l-0.15,0.15l-0.61,0.17
	l-0.71,0.04l-0.11-0.29l-0.13-0.18L82.91,77l-0.06-0.35l-0.19-0.01l0.06,0.08l-0.13,0.04l-0.11,0.26l0.08,0.29l-0.06,0.53
	l-2.93,0.32L79.5,78l0.01-0.22l-0.12-0.04l-0.25,0.22l-0.36,0.2l-0.12,0.15l-1.04,0.02l-0.67-0.15l-0.27-0.22l-0.12-0.34l0.03-0.28
	l0.05-0.09l1.01-0.62l0.29,0.19L78,76.72l-0.01-0.11l0.19-0.07l0.12-0.15l0.13-0.01l0.2-0.18l-0.01-0.41l0.11-0.01l-0.11-0.24
	l-0.21-0.17l-0.02-0.19l-0.29-0.19l-0.11-0.84l-0.32-0.24l0.19-0.05l-0.12-0.37L77.7,72.8l0.36-0.01l0.07-0.12l0.11-0.04l0.09-0.17
	l-0.15-0.4l-0.24,0.02l0.1-0.15l-0.55-0.05l-0.1-1.03l-0.01-0.63l-0.3-2.17l0.01-0.17l0.14-0.51l-0.06-0.35l0.07-0.14l0.08-0.01
	l-0.07-0.46l0.01-0.41l-0.37-0.18l0.02-0.61l0.02,0.22l0.24-0.35l-0.36-0.05l-0.06-0.65l-0.33-1.97l-0.09-0.13l-0.85-0.33
	l-0.26-0.08l-0.17-0.29l-0.08-0.24L75,61.08l0.27-0.33l0.5-0.21l0.53-0.16l2.75-0.19l0.17,0.31l0.13-0.07l0.01-0.17l0.08-0.06
	l0.55-0.03l0.16,0.2l0.25,0.03l0.41-0.07l0.05-0.06l0.14-0.29l0.38-0.07l0.19,0.31l0.23-0.19l0.19-0.02l-0.02-0.16l0.36-0.01
	l0.31,0.05l0.15,0.15L83.01,61.05z"/>
<path class="st2" d="M107.92,71.59l-0.03-0.27l-0.2-0.06l-0.04,0.14l-0.11,0.01l0.02,0.25l0.17,0.07L107.92,71.59z M107.95,72.66
	l-0.17-0.04l0.09-0.45l-0.11,0.04l0.08-0.26l-0.26-0.08l-0.58-0.05l-0.07,0.17l0.48,0.15l0.18,0.12l-0.33-0.02l0.14,0.54l-0.1,0.12
	l0.26,0.39l-0.15,0.18l0.1,0.16l0.38-0.04l-0.09-0.35L107.95,72.66z M107.09,71.24l-0.36,0.01l0.18,0.2L107.09,71.24z M105.27,65.3
	l-0.05-0.19l-0.09,0.2L105.27,65.3z M104.55,64.16l-0.52,0.05l0.02,0.16l0.06,0.08l0.17,0.07l0.08-0.04L104.55,64.16z M104.22,61.37
	l-0.38,0.04l-0.09,0.17l0.47,0.01L104.22,61.37z M101.7,67.19l-0.1-0.13l-0.18,0.1l0.15,0.09L101.7,67.19z M101.78,68.3l-0.13-0.18
	l0.01-0.17l-0.09-0.13l-0.43,0.12l-0.04,0.2l-0.21,0.13l0.01,0.38l-0.19-0.01l-0.01,0.19l0.13,0.21l0.1-0.12l0.07,0.1l0.15-0.15
	l0.36,0.05l-0.17-0.09l0.23-0.13l0.07-0.36L101.78,68.3z M100.34,59.53l-0.15-0.18l0.01,0.38l0.14,0.04L100.34,59.53z M100.18,59.08
	l-0.05-0.21l-0.34,0.14l0.32,0.16L100.18,59.08z M110.29,74.49l-0.04,0.39l-0.22,0.24l-1.09,0.35l-0.3,0.06l-0.13-0.21l-0.25,0
	l-0.04,0.17l-0.29,0.11l-0.52,0l-0.22-0.25l-0.37,0.12l-0.26,0.19l-0.09-0.13l-0.24,0.08l-0.17-0.09l-0.02,0.11l-0.04-0.11
	l-0.35,0.06l-0.53,0.16l-0.39-0.02l-0.6-0.22l-0.75,0.18l-0.14,0.21l-0.15-0.1l-0.19,0.02l-0.21,0.13l-0.61,0.25l-0.55-0.03
	l-0.53-0.08l-0.17-0.04l-0.21-0.17l-0.14-0.34l0-0.22l0.08-0.34l1.06-0.68l0.17-0.54l0.17-0.21l-0.11,0.01l0-0.25l0.13-0.04
	l-0.07-0.21l-0.32-0.13l-0.18-0.48l0.08-0.04L101.35,72l0.11-0.04l-0.01-0.11l0.13-0.1l-0.08,0.01l0.01-0.22l0.31,0.13l0.08-0.03
	l0.07-0.09l0.04-0.14l-0.1-0.18l-0.29-0.11l-0.19-0.23l-0.39,0.26l-0.05-0.27l-0.65,0.37l-1.29,0.04l-0.01-0.11l-0.2-0.06
	l-0.13,0.07L98.67,71l0.07-0.14l-0.03-0.05l-0.15-0.15l-0.22-0.03l-0.19,0.07L98,70.85l-0.05,0.09l0.12,0.34l-0.15,0.15l-0.23-0.06
	l-0.12-0.1l-0.05-0.21l0.01-0.41l0.27-0.63l0.14-0.29l1.44-0.14l0.7-0.18l0.12-0.12l-0.01-0.38l-0.63-1.67l0.07-0.17l-0.17-0.29
	l-0.09-0.62l0.05-0.03l0.02-0.11l-0.2-0.09l-0.06-0.32l-0.23-0.09l-0.18-1.02l0.05-0.06l-0.05-0.27l0.08-0.31l-0.14,0.01l-0.21-0.22
	l0.04-0.11l0.29-0.11l-0.07-0.18l-0.3,0.03l-0.13-0.18l0.17,0.01l0.01-0.14l-0.11,0.01l-0.19-0.25l0.13-0.09l0.06,0.08l-0.04-0.44
	l-0.44-0.04l-0.04-0.38l-0.14-0.01l-0.2-0.31l0.06-0.23l-0.25-0.55l-0.03,0l-0.07-0.16l0.16-0.07l-0.3-0.3l-0.07-0.16l0.05-0.33
	l0.16-0.29l0.23-0.16l0.27-0.08l-0.07,0.42l0.39,0.07l0.02-0.11l0.51-0.13l0.5,0.06l0.12-0.12l0.12,0.13l0.19-0.02l0.11-0.29
	l-0.03-0.08l-0.28,0l-0.26,0.14l0.1-0.37l0.04,0.16l0.22,0l-0.02-0.24l0.3-0.06l2.2-1.09l0.27-0.08l0.25,0.03l0.47,0.31l0.23,0.36
	l1.27,3.36l-0.41,0.07l-0.26,0.11l0.12,0.15l0.17,0.04l-0.05,0.61l0.31,0.38l-0.06,0.47l0.14,0.29l0.38-0.09l0.12,0.65l0.08,0.02
	l0.03,0.63l0.56,0.14l-0.16,0.07l0.05,0.24l0.18,0.17l-0.24,0.38l0.17,0.34l0.11-0.04l0.06,0.08l0.17,0.04l0.08,0.57l0.03,0.02
	l0.21,0.12l0.1,0.76l0.08,0.02l0.1,0.13l0.25,0.03l0.07,0.13l-0.24,0.08l-0.04,0.14l0.11,0.02l0.07,0.46l0.16-0.02l0.06,0.1
	l0.19,0.01l0.08,0.29l-0.18,0.1l0.25,0.06l0.49,1.38h-0.28l0.16,0.2l0.22,0.03l0.53,1.49l0.62,1.01l0.18,0.12l0.98,0.48
	L110.29,74.49z M97.79,64.83l-0.01,0.69l-0.12,0.48l-0.3,0l-0.05,0.03l-0.14,0.23l-0.02,0.11l0.22,0.31l-0.16,0.07l0.12,0.1
	l-0.04,0.47l0.13-0.07l-1.26,6.68l-0.24,0.05l-0.06,0.25l0.47,0.06l0.05-0.09l0.23,0.36l0.19,0.2l1.04,0.31l0.23,0.14l0.17,0.31
	l0.01,0.08l-0.07,0.39l-0.29,0.36l-0.88,0.31l-2.27,0.11l-0.05-0.27l-0.88,0.22l-0.37,0.17l-0.41-0.01l-0.39-0.1l-0.18-0.15
	l-0.11-0.24l-0.08-0.24l0.01-0.22l0.07-0.17l0.98-0.67l0.43-0.67l0.2-0.21l0.16-0.32l0.03-0.3l0.27-0.08l0.31-0.5l0.09-0.23
	l0.02-0.31l-0.15-0.12l-0.05-0.21l-0.14-0.07l0-0.22l0.22-0.05l-0.01-0.33l0.22-0.02l0.19-0.82l-0.08-1.04l0.19-0.62l-0.03-0.33
	l0.2-0.43l-0.06-0.38l0.38-0.04l0.23-0.13l0.02-0.08l0.02-1.51l0.11-0.29l-0.05-0.19l0.06-0.25l0.13-0.04l-0.01-0.36l-0.2-0.12
	l0.35-1.76l0.16-0.57l0.1-0.12l0.11-0.04l0.11,0.02l0.12,0.1l0.24,0.5L97.79,64.83z"/>
<path class="st2" d="M123.15,62.16l-0.41,0.04l-0.18,0.07l-0.2,0.18l0.12,0.1l0.47-0.21L123.15,62.16z M121.59,65.3l-0.22-0.01
	l-0.1,0.12l0.3,0L121.59,65.3z M121.37,63.9l-0.13,0.04l-0.17,0.18l0.27-0.03L121.37,63.9z M120.72,62.56l-0.16,0.04l-0.02-0.22
	l0.17,0.01L120.72,62.56z M120.62,60.4l-0.04-0.11l-0.25-0.03l0.01,0.11L120.62,60.4z M127.09,63.44l-0.22,0.02l-0.01,0.17l0.24,0.2
	l-0.08,0.58l0.11-0.01l0.04,0.11l-0.2,0.24l0.11,0.29l-0.06,0.47l0.05,0.24l-0.19,0.32l0.01,0.08l0.12,0.13l0.26,0.11l-0.02,0.33
	l-0.11,0.83l-0.13,0.62l-0.13,0.37l-0.42-0.12l0.02,0.25l-0.19,0.07l-0.33-0.3l-0.2-0.06l0.07,0.73l-0.19,0.29l-0.02,0.11l0.04,0.13
	l0.24,0.2l0.16-0.02l0.14,0.07l-0.06,0.2l0.04,0.35l-0.29,0.14l-0.08,0.28l-0.11,0.26l-0.08,0.06l-0.25,0l-0.03,0.2l-0.13,0.04
	l0.1,0.18l-0.95,0.94l-1.13,0.77l-1.18,0.58l-0.29,0.08l-0.18-0.12l0.13-0.07l0.09-0.2l-0.34,0.2l-0.29,0.36l-0.73,0.13l-0.53-0.06
	L119.66,74l-0.23-0.61l0.06-0.47l0.07-0.12l0.49-0.32l0.29-0.17l-0.01,0.14l0.22-0.29l0.26-0.68l0.09-0.72l0.16-0.32l-0.21-0.2
	l0.12-0.45l-0.18-0.45l-0.27-4.09l0.11-0.01l-0.04-0.11l0.13-0.01l0-0.3l-0.16,0.02l-0.05,0.06l-0.01-0.08l0.2-0.24l0.04-0.11
	l0-0.25l-0.08-0.29l0.05-0.03l0.09-0.23l-0.14-0.04l0.7-0.7l0.33-0.03l0.02-0.11l0.55-0.25l-0.06-0.08l-0.13,0.12l-0.49,0.05
	l-0.42,0.18l-0.04-0.11l-0.23-0.14l0.01-0.19l-0.26-0.08l0.04-0.39l-0.08-0.27l0.07-0.64l0.07-0.09l-0.32-0.16l-0.04-0.16
	l-0.42-0.12l-0.3-1.34l-0.31-0.66l-0.27-0.25l-0.52-0.28l-0.19-0.23l-0.1,0.09l-0.24-0.17l-0.13-0.18l-0.08-0.24l0.11-0.53
	l0.27-0.36l0.56-0.19l1.1,0.06l1.63,0.36l0.34,0.13l-0.04,0.14l0.07,0.46l0.8,0.36l0.05,0.27l0.67,0.1l0.09,0.4l0.34,0.13l0.11,0.29
	l0.21-0.35l0.08,0.27l0.31,0.11l-0.19-0.2l0.25-0.22l0.36,0.62l-0.17-0.01l0.06,0.1l-0.04,0.17l0.55,0.05l0.31,0.35l0.36,0.62
	l0.65,1.56l0.06,0.3l-0.11,0.01l0.18,0.42l0.06,0L127.09,63.44z M117.81,67.02l-0.01-0.14l-0.09-0.05l-0.08-0.02l-0.11,0.04
	l-0.07,0.09l0.01,0.08l0.15,0.18l0.18-0.13L117.81,67.02z M117.63,71.51l-0.23-0.33l-0.07,0.14l0.12,0.07l-0.16,0.04l0.01,0.08
	l-0.16,0.07l0.38,0.24l-0.08-0.21L117.63,71.51z M117.1,59l-0.37-0.15l-0.13,0.09l0.09,0.13l0.11-0.01l0.1,0.13l0.13-0.04L117.1,59z
	 M116.91,59.86l-0.04-0.13l-0.23-0.06l0-0.22l-0.12,0.12l-0.1-0.15l-0.47-0.06l-0.11,0.26l-0.07,0.67l-0.11,0.26l0.17,0.56
	l0.08,0.02l-0.07,0.72l0.19,0.26l0.01,0.14l-0.02,0.66l0.36,0.02l0.12-0.15l-0.11-0.54l0.01-0.22l0.09-0.17l-0.1-0.21l0.1-0.09
	l-0.22-0.03l0.14-0.29l-0.21-0.14l-0.04-0.16l0.15-0.12l0.32-0.06l-0.18-0.17l-0.07-0.16l-0.14-0.01l-0.01-0.36l0.2-0.24
	L116.91,59.86z M115.72,61.08l-0.1-0.13l-0.07-0.16l-0.13,0.01l-0.07,0.12l-0.27,0l0.2,0.12l0.16,0.23l0.27-0.03L115.72,61.08z
	 M115.28,61.65l-0.08-0.24l-0.18-0.15l0.01,0.13L115.28,61.65z M115.29,73.96l-0.12-0.07l-0.14,0.01l-0.11,0.26l-0.14-0.01
	l-0.07,0.12l0.35-0.09L115.29,73.96z M112.63,67.56l-0.21,0.13l0.02,0.19l-0.34,0.42l0.14,0.01l0.3-0.28L112.63,67.56z M117.91,65.8
	l-0.21,0.1l0.14,0.29l-0.1,0.12l0.14-0.01l0.13,1.36l-0.16,0.02l-0.1,0.37l-0.24-0.17l-0.01,0.22l0.27,0.25l0.31,0.08l0.02,0.24
	l-0.14-0.01l-0.07-0.13l-0.17-0.01l0.01,0.11l-0.22,0.02l0.01,0.11l0.33,0.24l0.04,0.13l-0.14,0.01l-0.21-0.17l-0.03,0.25l0.21,0.2
	l-0.11,0.26l-0.12,0.42l-0.06,0.47l-0.11-0.02l-0.01,0.19l0.18,0.39l0.31-0.2l-0.05-0.24l0.16-0.32l0.02-0.39l0.2-0.16l0.11,0.29
	l0.08,0.81l0.14,0.89l-0.13,0.34l0.16,0.2l0.15,1.19l-0.06,0.53l-0.12,0.18l-0.54,0.13l-0.98,0.07l-1,0.13l-1.01,0.02l-0.34-0.1
	l-0.12-0.13l-0.22,0.3l-1.79,0.26l-0.77-0.03l-0.73-0.12l-0.27-0.19l-0.12-0.35l0.01-0.22l0.06-0.23l1.06-0.63l0.26-0.41l0.25-0.3
	l0.08-0.31l-0.17-0.07l-0.05-0.27l-0.29-0.19l-0.21-2.45l0.21-0.05l-0.13-0.26l0.12-1.05l-0.18-0.39l-0.1-0.48l-0.16-0.23l0.13-0.07
	l-0.13-0.23l0.14-0.26l-0.16-0.23l-0.09-0.38l-0.1-0.76l0-0.28l0.05-0.28l0.24-0.05l0.09-0.15l-0.23-0.99l0-0.25l0.13-0.37l0.03-0.3
	l-0.16-0.53l0.11-0.23l-0.33,0.03l-0.26-0.09l-0.13-1.6l-0.08-0.54l-0.12-0.12l-1.23-0.48l-0.14-0.29l-0.08-0.27l0.05-0.33l0.2-0.24
	l0.76-0.32l0.43-0.12l0.6-0.06l0.17,0.06l0.14-0.01l0.18,0.17l0.01,0.11l0.2-0.16l-0.04-0.16l0.17,0.07l1.14-0.11l0.01,0.14
	l-0.21,0.1l0.26,0.08l0.28,0.03l0.16-0.04l0.05-0.06l0.06-0.28l0.21-0.05l0.31,0.05l0.55,0l0.28,0.03l0.15-0.21l1.13-0.19l0.41,0.04
	l0.24,0.2l0.07,0.19l0.38,3.83l-0.22-0.03l-0.04,0.42l0.36,0.29l0.13,1.28l-0.24,0.02l0.35,1.06l0.02,1.34l-0.11,0.26l0.2,0.09
	l-0.07,0.09L117.91,65.8z"/>
<path class="st2" d="M143.99,54.37l-0.06,0.49l-1.18,0.87l-0.41,0.52l-0.24-0.2l-0.59,0.42l0.2,0.36l-0.09,0.25l-0.27,0.33l0.1,0.43
	l0.17-0.02l-0.04,0.14l-0.14,0.01l-0.02,0.36l-0.41,0.34l-0.04,0.14l0.19,0.28l-0.11,0.01l0.02,0.19l-0.13,0.09l0.07,0.16
	l-0.23,0.13l-0.17,0.48l0.14,0.07l-0.63,1.71L140,62.05l-0.08,0.04l-0.08-0.02L139.69,62l-0.16-0.2l-0.64-1.17l-0.01-0.08l0.06-0.42
	l1.05-2.96l0.1-0.7l-0.15-0.4l-0.13-0.18l-1.25-0.43l-0.13-0.26l-0.05-0.27l0.03-0.28l0.17-0.21l0.33-0.23l0.42-0.15l1.3-0.13
	l1.52-0.15l-0.25,0.21l0.01,0.11l0.33-0.03l0.15,0.1l0.42,0.04l-0.02-0.2l0.14,0.07l-0.01,0.2l0.17,0.07l0.1-0.09l0.2,0.12l0.24-0.1
	l-0.03-0.34l0.29,0.18l0.03,0.08L143.99,54.37z M135.08,60.24l-0.13-0.21l-0.16,0.07l0.08,0.21L135.08,60.24z M134.54,72.8
	l-0.1-0.15l-0.25,0.02l0.24,0.17L134.54,72.8z M133.81,70.13l-0.01,0.14l-0.1,0.01l-0.05-0.21L133.81,70.13z M133.15,65.12
	l-0.01-0.11l-0.08-0.08l-0.12,0.04l0,0.25l0.18,0.01L133.15,65.12z M130.43,58.53l-0.27,0.08l0-0.23l-0.52,0.05l0.04,0.37l0.31,0.05
	l0.13,0.23l0.25-0.02L130.43,58.53z M142.12,71.22l-0.05,0.36l-0.2,0.21l-0.47,0.21l-1.07,0.27l-0.6,0.03l-0.12-0.37l-0.26,0.16
	l-0.24,0.02l-0.09-0.1l-0.43,0.07l0.03,0.27l-0.16-0.23l-0.2-0.12l-0.32,0.06l-0.46,0.02l-0.61,0.23l0.04,0.08l0.18-0.07l0.09,0.05
	l0.04-0.11l0.54,0.14l-1.23,0.07l0.16-0.07l-0.15-0.12l-0.41,0.26l-0.96,0.26l-0.5-0.06l0.01,0.11l-0.68,0.07l-0.13-0.21l-0.21,0.08
	l-0.04-0.13l0.16-0.07l-0.12-0.07l0.01-0.17l-0.22-0.03l-0.18,0.13l-0.01-0.08l-0.19,0.02l0.02,0.25l-0.16,0.02l-0.01,0.19
	l-0.44-0.04l-0.21-0.14l-0.15-0.18l-0.08-0.24l0.03-0.28l0.14-0.26l1.13-0.52l0.31-0.22l0.06,0.05l0.05-0.03l0.02,0.19l0.14,0.09
	l-0.11,0.26l0.4-0.04l0.16-0.1l-0.26-0.08l0.19-0.02l-0.2-0.09l-0.01-0.11l0.16-0.04l-0.14-0.01l-0.11-0.29l0.11,0.04l0.01-0.19
	l0.26-0.16l-0.02-0.22l-0.13,0.04l-0.04-0.38l0.1-0.12l-0.12-0.13l0.07-0.12l-0.02-0.22l0.17-0.24l-0.21-0.23l-0.18,0.13l0.14-0.01
	l-0.25,0.22l-0.07,0.12l-0.01,0.16l0.11,0.32l-0.02,0.08l-0.04,0.09l-0.18,0.04l-0.12-1.28l-0.06-0.65l-0.37-2.32l-1.08-1.9
	l-0.37-1.01l-0.31-0.38l0.09-0.23l-0.36-0.35l0.13-0.09l-0.2-0.36l-0.23-0.14l0.02-0.11l-0.12-0.15l-0.04-0.13l-0.26-0.17
	l-0.48-0.45l-0.16-0.26l0.31-0.17l-0.06-0.35l-0.54,0.05l-0.29-0.4l-0.09-0.31l-0.29-0.19l-0.84-1.29l-0.46-0.25l-0.77-0.3
	l-0.16-0.47l0.02-0.33l0.07-0.14l0.18-0.13l0.4-0.12l0.04,0.16l0.12,0.08l0.03-0.29l-0.18-0.11l0.19-0.05l0.21,0.42l0.25,0.03
	l0.02-0.11l0.38-0.04l0.51-0.16l0.11-0.01l0.07-0.09l0.44-0.04l0.01-0.19l1.12-0.03l0.01,0.11l0.28,0l0.04,0.14l0.49-0.05
	l-0.21-0.23l0.35-0.04l0.33,0.24l0.33-0.23l0.12,0.08l0.25-0.3l0.34,0.16l0.1,0.16l0.25-0.26l-0.04-0.07l0.26-0.11l1.11-0.19
	l1.18-0.01l0.33,0.05l0.02,0.19l0.51,0.14l0.03,0.02l0.07,0.43l-0.01,0.19l-0.1,0.15l-0.87,0.61l-0.1,0.39l0.2,0.61l0.47,0.88
	l0.08,0.26l-0.1,0.04l-0.07-0.16l0.01,0.36L136,58.99l-0.43-0.01l-0.03,0.3l0.65-0.07l0.26,0.14l0.46-0.07l0.16,0.26l-0.13,0.04
	l-0.23-0.14l0.14,0.34l0.41-0.01l0.4,0.73l1.42,2.14l0.45,1.22l0.03,0.3l-0.35,0.06l-0.25-0.06l-0.15,0.1l-0.06,0.25l0.15,0.12
	l-0.26,0.11l0.05,0.3l0.17-0.04l0.21,0.12l0.04,0.41l0.13,0.1l0.01,0.16l0.14-0.26l-0.14-0.31l0.34,0.13l-0.05,0.28l0.07,0.13
	l-0.12,0.23l-0.13,0.01l-0.02-0.19l-0.21,0.02l0.23,0.2l-0.26,0.16l0.24,0.17l0.18-0.1l0.1,0.18l-0.08,0.31l0.24-0.08l0.07,0.13
	l-0.12,0.12l-0.05,0.31l0.06,0.08l-0.09,0.17l0,0.25l-0.16,0.07l-0.04,0.2l0.15,0.12l0.11-0.23l0.22,0.01l0.02,0.22l-0.1,0.12
	l-0.06,0.25l-0.24,0.05l0.09,0.07l0.01,0.36l0.21,0.23l-0.01,0.19l0.22,0.06l-0.17,0.18l0.25-0.02l0.03,0.33l0.14,0.26l0.12,0.15
	l1.46,0.35l0.17,0.32L142.12,71.22z"/>
<rect x="53.72" y="55.79" transform="matrix(0.9942 -0.1071 0.1071 0.9942 -6.6289 11.1555)" class="st3" width="93.66" height="23.02"/>
</svg>
