<?xml version="1.0" encoding="utf-8"?>
<!-- Generator: Adobe Illustrator 25.0.1, SVG Export Plug-In . SVG Version: 6.00 Build 0)  -->
<svg version="1.1" id="Layer_1" xmlns="http://www.w3.org/2000/svg" xmlns:xlink="http://www.w3.org/1999/xlink" x="0px" y="0px"
	 viewBox="0 0 103.31 82.03" style="enable-background:new 0 0 103.31 82.03;" xml:space="preserve">
<style type="text/css">
	.st0{fill:#1A1A1A;}
	.st1{fill:#AE2B29;}
</style>
<g>
	<path class="st0" d="M6.77,20.75l1.14-2.03c0.19-0.32,0.66-0.27,0.83-0.15c0.1,0.05,1.85,1.35,3.45,1.35
		c0.97,0,1.68-0.61,1.68-1.47c0-1.03-0.85-1.81-2.51-2.48c-2.09-0.83-4.72-2.48-4.72-5.42c0-2.43,1.87-4.88,5.62-4.88
		c2.53,0,4.48,1.3,5.21,1.84c0.29,0.17,0.24,0.61,0.15,0.78l-1.24,1.89c-0.17,0.27-0.61,0.49-0.83,0.32
		c-0.22-0.12-1.99-1.47-3.48-1.47c-0.88,0-1.53,0.59-1.53,1.25c0,0.91,0.73,1.59,2.65,2.38c1.9,0.76,4.91,2.25,4.91,5.59
		c0,2.52-2.17,5.07-5.74,5.07c-3.16,0-4.91-1.32-5.47-1.89C6.65,21.19,6.58,21.1,6.77,20.75"/>
	<path class="st0" d="M40.18,19.41c2.68,0,4.87-2.21,4.87-4.88c0-2.7-2.19-4.93-4.87-4.93c-2.65,0-4.84,2.23-4.84,4.93
		C35.34,17.2,37.53,19.41,40.18,19.41 M40.18,5.68c4.87,0,8.76,3.95,8.76,8.85c0,4.9-3.89,8.8-8.76,8.8c-4.87,0-8.73-3.9-8.73-8.8
		C31.45,9.63,35.32,5.68,40.18,5.68"/>
	<path class="st0" d="M61.53,6.39c0-0.24,0.22-0.47,0.46-0.47h2.99c0.27,0,0.46,0.22,0.46,0.47v9.92c0,1.72,1.26,3.09,2.99,3.09
		c1.75,0,3.04-1.37,3.04-3.09V6.39c0-0.24,0.2-0.47,0.46-0.47h2.99c0.24,0,0.46,0.22,0.46,0.47v10.12c0,3.73-3.11,6.81-6.96,6.81
		c-3.82,0-6.91-3.09-6.91-6.81V6.39z"/>
	<path class="st1" d="M15.36,44.55l-2.99-6.72h-0.12l-2.97,6.72H15.36z M4.34,49.74l7.47-16.49c0.07-0.15,0.29-0.27,0.41-0.27h0.24
		c0.12,0,0.34,0.12,0.41,0.27l7.42,16.49c0.15,0.32-0.05,0.64-0.41,0.64h-1.53c-0.29,0-0.46-0.15-0.56-0.37l-1.51-3.36H8.33
		c-0.49,1.13-1,2.23-1.48,3.36c-0.07,0.17-0.27,0.37-0.56,0.37H4.75C4.39,50.38,4.2,50.06,4.34,49.74"/>
	<path class="st1" d="M41.35,41.56c1.58,0,2.97-1.35,2.97-3.04c0-1.59-1.39-2.92-2.97-2.92h-4.33v5.96H41.35z M34.46,33.69
		c0-0.24,0.19-0.47,0.46-0.47h6.62c2.92,0,5.3,2.33,5.3,5.24c0,2.25-1.48,4.12-3.6,4.97l3.33,6.22c0.17,0.32,0,0.71-0.41,0.71h-1.9
		c-0.19,0-0.34-0.12-0.39-0.22l-3.24-6.49h-3.67v6.25c0,0.24-0.22,0.47-0.46,0.47h-1.58c-0.27,0-0.46-0.22-0.46-0.47V33.69z"/>
	<path class="st1" d="M87.96,47.91c0.22-0.32,0.41-0.69,0.63-1c0.22-0.32,0.56-0.42,0.83-0.2c0.15,0.12,2.02,1.69,3.89,1.69
		c1.68,0,2.75-1.03,2.75-2.28c0-1.47-1.27-2.4-3.67-3.41c-2.48-1.05-4.43-2.35-4.43-5.19c0-1.91,1.46-4.53,5.33-4.53
		c2.43,0,4.26,1.28,4.5,1.45c0.19,0.12,0.39,0.47,0.15,0.83c-0.19,0.29-0.41,0.64-0.61,0.93c-0.19,0.32-0.51,0.47-0.85,0.25
		c-0.17-0.1-1.87-1.23-3.28-1.23c-2.04,0-2.75,1.3-2.75,2.21c0,1.4,1.07,2.25,3.09,3.09c2.82,1.15,5.23,2.5,5.23,5.49
		c0,2.55-2.26,4.63-5.42,4.63c-2.97,0-4.84-1.57-5.23-1.94C87.89,48.49,87.72,48.32,87.96,47.91"/>
	<path class="st0" d="M66.54,36.89h-3.48c-0.27,0-0.46-0.22-0.46-0.47v-2.67c0-0.24,0.19-0.47,0.46-0.47h10.8
		c0.27,0,0.46,0.22,0.46,0.47v2.67c0,0.24-0.19,0.47-0.46,0.47h-3.48v13.09c0,0.24-0.22,0.47-0.46,0.47H67
		c-0.24,0-0.46-0.22-0.46-0.47V36.89z"/>
	<path class="st0" d="M61.17,60.99c0-0.24,0.22-0.47,0.46-0.47h2.89c0.27,0,0.46,0.22,0.46,0.47v6.18h6.96v-6.18
		c0-0.24,0.19-0.47,0.46-0.47h2.89c0.24,0,0.46,0.22,0.46,0.47v16.22c0,0.25-0.22,0.47-0.46,0.47H72.4c-0.27,0-0.46-0.22-0.46-0.47
		v-6.45h-6.96v6.45c0,0.25-0.2,0.47-0.46,0.47h-2.89c-0.24,0-0.46-0.22-0.46-0.47V60.99z"/>
</g>
</svg>
