<?xml version="1.0" standalone="no"?>
<!DOCTYPE svg PUBLIC "-//W3C//DTD SVG 1.1//EN" "http://www.w3.org/Graphics/SVG/1.1/DTD/svg11.dtd" >
<svg xmlns="http://www.w3.org/2000/svg">
<metadata>
This is a custom SVG webfont generated by Font Squirrel.
Copyright   : Copyright c 2009 by TypeTogether All rights reserved
Designer    : Veronika Burian Jos Scaglione
Foundry     : TypeTogether
Foundry URL : wwwtypetogethercom
</metadata>
<defs>
<font id="webfontszW17qU2" horiz-adv-x="1024" >
<font-face units-per-em="2048" ascent="1546" descent="-502" />
<missing-glyph horiz-adv-x="438" />
<glyph unicode=" "  horiz-adv-x="438" />
<glyph unicode="&#x09;" horiz-adv-x="438" />
<glyph unicode="&#xa0;" horiz-adv-x="438" />
<glyph unicode="!" horiz-adv-x="552" d="M373 391h-195l-33 744v348h256v-348zM428 116.5q0 -141.5 -151.5 -141.5t-151.5 141.5t151.5 141.5t151.5 -141.5z" />
<glyph unicode="&#x22;" horiz-adv-x="774" d="M326 915h-222v531h222v-531zM670 915h-221v531h221v-531z" />
<glyph unicode="#" horiz-adv-x="1243" d="M817 0h-174l41 270h-219l-41 -270h-174l39 270h-221l36 164h211l43 275h-223l35 165h213l35 238h176l-37 -238h217l35 238h174l-37 -238h225l-32 -165h-217l-39 -275h223l-35 -164h-213zM709 434l41 275h-218l-43 -275h220z" />
<glyph unicode="$" horiz-adv-x="1075" d="M977 375q0 -160 -93 -251t-259 -116v-172h-166v164q-233 10 -377 76v311h156l32 -154q4 -23 12.5 -31.5t28.5 -17.5q41 -16 148 -22v395q-80 23 -130 44.5t-107.5 61t-85 102t-27.5 150.5q0 166 98 258.5t262 114.5v152h166v-148q141 -6 323 -63v-330l-174 21l-30 151 q-6 35 -41 45q-43 12 -78 14v-395q78 -25 127 -47t104.5 -62t83 -103.5t27.5 -147.5zM326 958q0 -111 143 -170v332q-143 -33 -143 -162zM760 334q0 111 -135 168v-328q135 33 135 160z" />
<glyph unicode="%" horiz-adv-x="1789" d="M416 526q-176 0 -255 100.5t-79 260.5q0 176 89 279.5t261 103.5q332 0 332 -357q0 -178 -90 -282.5t-258 -104.5zM614 -35h-221l772 1307h219zM424 668q150 0 149 237q0 109 -32.5 165t-114.5 56q-154 0 -154 -227q0 -231 152 -231zM1362 -25q-176 0 -255 100.5 t-79 260.5q0 176 89 279.5t261 103.5q330 0 330 -357q0 -178 -89 -282.5t-257 -104.5zM1368 117q82 0 117 60.5t35 176.5q0 109 -33 165t-115 56q-154 0 -153 -227q-1 -231 149 -231z" />
<glyph unicode="&#x26;" horiz-adv-x="1466" d="M1401 0h-291l-139 166q-170 -190 -436 -191q-205 0 -329 110t-124 306q0 317 334 426q-94 135 -94 260q0 143 99 225t263 82q94 0 189.5 -25.5t146.5 -53.5v-295l-170 8l-27 139q-6 29 -28 35q-41 12 -99 12q-76 0 -113.5 -34.5t-37.5 -94.5q0 -61 30.5 -115.5 t116.5 -152.5l256 -301q55 182 62 287h301v-129l-94 -19q-18 -2 -24.5 -8t-10.5 -27q-23 -141 -82 -270l137 -164q18 -23 49 -26l115 -19v-131zM838 313l-310 357q-217 -55 -217 -267q0 -100 60.5 -169.5t183.5 -69.5q174 -1 283 149z" />
<glyph unicode="'" horiz-adv-x="430" d="M326 915h-222v531h222v-531z" />
<glyph unicode="(" horiz-adv-x="663" d="M600 -233l-182 -103q-315 442 -316 909q0 473 334 932l178 -106q-135 -211 -199.5 -404.5t-64.5 -419.5q0 -240 62.5 -418.5t187.5 -389.5z" />
<glyph unicode=")" horiz-adv-x="661" d="M238 -336l-181 103q127 203 191.5 390t64.5 427q0 225 -63.5 410.5t-194.5 404.5l178 106q326 -442 326 -923q1 -463 -321 -918z" />
<glyph unicode="*" horiz-adv-x="968" d="M315 797l-141 110l86 107l172 129l-213 12l-131 45l57 168l131 -45l175 -119l-56 205v137h178v-137l-55 -205h-67l-19 -61l53 -43l-84 -195zM795 907l-142 -110l-86 108l-82 195l54 41l-21 63l176 119l129 45l58 -168l-131 -45l-211 -14l170 -127z" />
<glyph unicode="+" horiz-adv-x="1167" d="M682 256h-201v307h-288v195h288v299h201v-299h291v-195h-291v-307z" />
<glyph unicode="," horiz-adv-x="425" d="M221 -242l-112 37l59 217q6 16 -10 23l-76 26l45 193q123 -4 185.5 -31.5t62.5 -111.5q0 -47 -37 -121z" />
<glyph unicode="-" horiz-adv-x="649" d="M602 489h-555v213h555v-213z" />
<glyph unicode="." horiz-adv-x="505" d="M403 116.5q0 -141.5 -149 -141.5q-152 0 -152 141.5t152 141.5q149 0 149 -141.5z" />
<glyph unicode="/" horiz-adv-x="821" d="M231 -188h-215l576 1734h213z" />
<glyph unicode="0" horiz-adv-x="1198" d="M592 -25q-147 0 -249.5 44t-157 128t-78 188.5t-23.5 244.5q0 623 530 622q143 0 245 -44t156 -128t76.5 -185.5t22.5 -236.5q0 -633 -522 -633zM600 156q145 0 205.5 108.5t60.5 331.5q0 221 -56 323.5t-202 102.5q-150 0 -213 -107.5t-63 -334.5q0 -215 60.5 -319.5 t207.5 -104.5z" />
<glyph unicode="1" horiz-adv-x="792" d="M741 0h-669v133l194 12q20 2 26.5 9.5t6.5 31.5v768q0 35 -29 43l-188 37l16 137h437v-985q0 -25 5 -32t27 -9l174 -14v-131z" />
<glyph unicode="2" horiz-adv-x="1017" d="M956 0h-895v154l275 268l79 78l72 71l58 60q37 39 50 59l32 51q18 31 24 58.5t6 56.5q0 170 -194 170q-109 0 -155 -42t-46 -161l-215 23q0 111 37 184.5t104.5 109.5t136 49t154.5 13q418 0 418 -325q0 -43 -7 -82t-31 -82l-37 -68q-13 -25 -55 -72l-54 -60 q-12 -13 -69 -68l-64 -62l-232 -221h383q25 0 29 24l28 168h168v-354z" />
<glyph unicode="3" horiz-adv-x="1026" d="M674 547v-8q268 -43 268 -316q0 -188 -125 -290.5t-344 -102.5q-145 0 -268 48t-197 132l133 146q135 -139 320 -140q244 0 244 217q0 211 -250 211q-68 0 -148 -14v168l113 10q125 12 190.5 76t65.5 164q0 178 -193 178q-109 0 -156.5 -43t-47.5 -160l-218 23 q0 356 435 356q414 0 413 -332q0 -121 -63 -203.5t-172 -119.5z" />
<glyph unicode="4" horiz-adv-x="1073" d="M868 -137h-217v289h-598v161l451 883l190 -94l-401 -768h358v385l219 20v-405h179v-182h-181v-289z" />
<glyph unicode="5" horiz-adv-x="1071" d="M911 975h-549l-28 -350q115 76 256 75q184 0 290.5 -108.5t106.5 -308.5q0 -197 -127 -325t-354 -128q-315 0 -486 180l136 148q135 -139 336 -140q109 0 183.5 66t74.5 190q0 131 -68 186.5t-160 55.5q-125 0 -229 -92l-164 72l45 675h539q23 0 28 23l29 113l141 10 v-342z" />
<glyph unicode="6" horiz-adv-x="1118" d="M1018 1014l-221 -27q0 98 -39 135t-131 37q-82 0 -141.5 -40t-89 -107.5t-43 -139t-15.5 -155.5q156 100 319 100q182 0 283.5 -103.5t101.5 -287.5q0 -217 -128 -334t-345 -117q-111 0 -194.5 36t-135 95.5t-83 148.5t-43 183t-11.5 211q0 92 13.5 179t49.5 181.5 t93 164t154.5 114.5t222.5 45q383 0 383 -319zM344 541q10 -387 244 -387q106 0 159.5 69.5t53.5 190.5q0 119 -44 174t-147 55q-135 0 -266 -102z" />
<glyph unicode="7" horiz-adv-x="1034" d="M557 -137h-250q23 258 108 495.5t170 371.5t181 245h-457q-23 0 -28 -23l-35 -180l-164 -12v411h940v-172q-184 -190 -320.5 -511.5t-144.5 -624.5z" />
<glyph unicode="8" horiz-adv-x="1052" d="M764 690q229 -133 229 -340q0 -182 -132 -278.5t-345 -96.5t-328.5 87.5t-115.5 248.5q0 121 57 208t160 171q-168 109 -168 291q0 168 119.5 260t304.5 92q197 0 299 -85t102 -228q0 -170 -182 -330zM457 602q-166 -145 -166 -272q0 -88 60.5 -137.5t174.5 -49.5 q104 0 161.5 52.5t57.5 136.5q0 20 -5 40.5t-10 36t-20.5 32t-24.5 27.5t-32 27l-32 22q-10 7 -39 23l-39 20l-44 22zM590 772q139 125 139 244q0 150 -190 149q-86 0 -134.5 -41t-48.5 -112q0 -45 16.5 -80t53.5 -63.5t70 -48t94 -48.5z" />
<glyph unicode="9" horiz-adv-x="1146" d="M125 -31l106 156q139 -111 291 -111q86 0 144.5 37t86 104.5t38 132t12.5 148.5q-141 -109 -320 -108q-180 0 -282.5 108.5t-102.5 306.5q0 215 122 337t341 122q113 0 199 -36t138 -94t85 -146t45 -181.5t12 -207.5q0 -707 -512 -707q-115 0 -224 35.5t-179 103.5z M799 616q-2 66 -7.5 113t-20.5 107.5t-40.5 98.5t-71 64.5t-106.5 26.5q-109 0 -161 -70.5t-52 -189.5q0 -129 47 -191.5t152 -62.5q127 0 260 104z" />
<glyph unicode=":" horiz-adv-x="505" d="M403 116.5q0 -141.5 -149 -141.5q-152 0 -152 141.5t152 141.5q149 0 149 -141.5zM403 923.5q0 -141.5 -149 -141.5q-152 0 -152 141.5t152 141.5q149 0 149 -141.5z" />
<glyph unicode=";" horiz-adv-x="425" d="M221 -242l-112 37l59 217q6 16 -10 23l-76 26l45 193q123 -4 185.5 -31.5t62.5 -111.5q0 -47 -37 -121zM395 923.5q0 -141.5 -149 -141.5q-152 0 -152 141.5t152 141.5q149 0 149 -141.5z" />
<glyph unicode="&#x3c;" horiz-adv-x="1167" d="M942 184l-782 291v238l774 305l59 -189l-626 -233l632 -229z" />
<glyph unicode="=" horiz-adv-x="1167" d="M971 301h-774v199h774v-199zM971 653h-774v199h774v-199z" />
<glyph unicode="&#x3e;" horiz-adv-x="1167" d="M999 475l-784 -291l-57 183l633 229l-627 233l61 189l774 -305v-238z" />
<glyph unicode="?" horiz-adv-x="1009" d="M516 389h-235v367q412 33 411 323q0 98 -59.5 153.5t-155.5 55.5q-106 0 -160 -28q-20 -10 -24 -43l-21 -123l-186 -15v322q213 82 401 82q471 0 471 -406q0 -199 -119.5 -318.5t-322.5 -150.5v-219zM551 116.5q0 -141.5 -151.5 -141.5t-151.5 141.5t151.5 141.5 t151.5 -141.5z" />
<glyph unicode="@" horiz-adv-x="1708" d="M1214 -158l41 -141q-152 -72 -409 -72q-338 0 -536.5 185.5t-198.5 539.5q0 362 220 585.5t574 223.5q317 0 509 -172t192 -477q0 -276 -110 -407.5t-296 -131.5q-180 0 -217 148q-74 -72 -135.5 -110t-130.5 -38q-106 0 -165.5 73t-59.5 212q0 231 120.5 392t323.5 161 q143 0 278 -65l-53 -328q-20 -104 -22 -174q-2 -27 -2 -49.5t10 -40t33 -21.5q31 -16 84 -4q72 16 120 109.5t48 251.5q0 250 -133.5 383t-401.5 133q-287 0 -448.5 -186.5t-161.5 -463.5q0 -287 153.5 -433t425.5 -146q174 0 348 63zM971 264l61 387q-45 29 -112 29 q-102 0 -177 -112.5t-75 -278.5q0 -156 90 -156q98 0 213 131z" />
<glyph unicode="A" horiz-adv-x="1499" d="M1487 0h-559v131l168 19l-95 276h-546l-95 -276l164 -19v-131h-512v129l88 23q41 10 52 38l450 1293h289l452 -1297q8 -25 50 -34l94 -23v-129zM950 606l-217 649h-6l-219 -649h442z" />
<glyph unicode="B" horiz-adv-x="1374" d="M737 0h-631v131l130 14q20 2 26 10.5t6 30.5v1108q0 25 -6 32t-26 9l-130 15v133h642q449 0 448 -363q0 -135 -71.5 -222t-178.5 -122v-6q344 -39 344 -360q0 -410 -553 -410zM506 178h196q166 0 253 51.5t87 194.5q0 246 -303 246h-233v-492zM506 846h141q315 0 316 239 q0 127 -70 173.5t-215 46.5h-172v-459z" />
<glyph unicode="C" horiz-adv-x="1394" d="M1292 424v-338q-172 -111 -499 -111q-365 0 -537 205t-172 570q0 340 192.5 549.5t554.5 209.5q285 0 457 -112v-359l-174 13l-35 198q-2 27 -28 35q-115 37 -230 37q-227 0 -357 -147.5t-130 -423.5q0 -289 125 -438.5t348 -149.5q166 0 254 35q29 8 33 39l32 188h166z " />
<glyph unicode="D" horiz-adv-x="1558" d="M705 0h-599v131l130 14q20 2 26 10.5t6 30.5v1108q0 25 -6 32t-26 9l-130 15v133h633q375 0 555.5 -187.5t180.5 -531.5q0 -354 -192.5 -559t-577.5 -205zM508 178h182q276 0 407.5 147.5t131.5 415.5q0 307 -128 435.5t-399 128.5h-194v-1127z" />
<glyph unicode="E" horiz-adv-x="1296" d="M1204 0h-1098v131l130 14q20 2 26 10.5t6 30.5v1108q0 25 -6 32t-26 9l-130 15v133h1053v-369l-174 8l-29 158q-6 27 -34 27h-414v-471h520v-179h-520v-483h459q29 0 32 23l33 180h172v-377z" />
<glyph unicode="F" horiz-adv-x="1239" d="M842 0h-736v131l130 14q20 2 26 10.5t6 30.5v1108q0 25 -6 32t-26 9l-130 15v133h1045v-369l-174 8l-29 158q-6 27 -35 27h-405v-467h512v-178h-512v-474q0 -25 5 -31.5t28 -9.5l301 -16v-131z" />
<glyph unicode="G" horiz-adv-x="1499" d="M1464 567l-86 -8q-33 -2 -32 -29v-464q-186 -90 -506 -91q-395 0 -575.5 208t-180.5 567q0 340 192.5 549.5t557.5 209.5q285 0 458 -114v-351l-176 15l-33 186q-6 33 -28 39q-115 37 -236 37q-225 0 -355 -150.5t-130 -418.5q0 -283 133 -436.5t385 -153.5q125 0 227 24 q29 6 29 35v326h-258l27 153h587v-133z" />
<glyph unicode="H" horiz-adv-x="1662" d="M1556 0h-563v131l129 14q20 2 26.5 10.5t6.5 30.5v488h-647v-486q0 -25 5 -31.5t28 -9.5l137 -16v-131h-572v131l130 14q20 2 26 10.5t6 30.5v1110q0 25 -6 32t-26 9l-130 15v131h572v-131l-137 -17q-23 -2 -28 -9t-5 -30v-442h647v442q0 25 -6 32t-27 9l-129 15v131h563 v-131l-129 -17q-23 -2 -27.5 -9t-4.5 -30v-1108q0 -25 5 -31.5t27 -9.5l129 -16v-131z" />
<glyph unicode="I" horiz-adv-x="813" d="M717 0h-613v131l150 14q20 2 26.5 9.5t6.5 31.5v1110q0 25 -6.5 32t-26.5 9l-150 15v131h613v-131l-158 -17q-23 -2 -28 -9t-5 -30v-1108q0 -25 5.5 -31.5t27.5 -9.5l158 -16v-131z" />
<glyph unicode="J" horiz-adv-x="1042" d="M567 322v976q0 35 -32 37l-179 17v131h621v-131l-137 -17q-23 -2 -28 -9t-5 -30v-983q0 -174 -85 -256t-271 -82q-111 0 -213.5 24t-143.5 50v318l174 -13l23 -143q2 -20 22 -29q49 -18 117 -18q80 0 108.5 36t28.5 122z" />
<glyph unicode="K" horiz-adv-x="1519" d="M1483 0h-586v131l127 21l-365 505l-151 -170v-299q0 -25 5 -31.5t28 -9.5l137 -16v-131h-572v131l130 14q20 2 26 10.5t6 30.5v1110q0 25 -6 32t-26 9l-130 15v131h572v-131l-137 -17q-23 -2 -28 -9t-5 -30v-555l534 592l-127 17v133h492v-131l-96 -19q-41 -6 -64 -33 l-416 -458l465 -649q20 -33 62 -41l125 -21v-131z" />
<glyph unicode="L" horiz-adv-x="1271" d="M1204 0h-1098v131l130 14q20 2 26 10.5t6 30.5v1108q0 25 -6 32t-26 9l-130 15v133h605v-133l-170 -17q-23 -2 -28 -9t-5 -30v-1120h459q29 0 32 23l33 194h172v-391z" />
<glyph unicode="M" horiz-adv-x="1957" d="M1860 0h-596v131l170 14q20 2 26 9.5t6 31.5v932h-6l-356 -790h-266l-359 800h-4v-940q0 -25 5 -31.5t28 -9.5l176 -16v-131h-578v131l130 14q20 2 26 9.5t6 31.5v1108q0 25 -6 32t-26 9l-130 15v133h461l420 -959h6l426 959h441v-131l-138 -17q-23 -2 -27.5 -9t-4.5 -30 v-1110q0 -37 32 -39l138 -16v-131z" />
<glyph unicode="N" horiz-adv-x="1697" d="M1440 0h-266l-711 1171v-983q0 -25 5 -31.5t28 -9.5l137 -16v-131h-527v131l130 14q20 2 26 10.5t6 30.5v1110q0 25 -6 32t-26 9l-130 15v133h445l694 -1168v979q0 25 -6 32t-27 9l-129 15v131h527v-131l-137 -17q-23 -2 -28 -9t-5 -30v-1296z" />
<glyph unicode="O" horiz-adv-x="1572" d="M778 -25q-348 0 -520 208t-172 562q0 338 188.5 551t532.5 213q229 0 386 -101t226.5 -264t69.5 -376q0 -371 -180.5 -582t-530.5 -211zM786 174q213 0 335 141.5t122 434.5q0 276 -115.5 418.5t-322.5 142.5q-215 0 -343 -144.5t-128 -418.5q0 -289 119.5 -431.5 t332.5 -142.5z" />
<glyph unicode="P" horiz-adv-x="1339" d="M831 0h-725v131l130 14q20 2 26 10.5t6 30.5v1108q0 25 -6 32t-26 9l-130 15v133h658q264 0 378.5 -120t114.5 -316q0 -492 -561 -492h-190v-367q0 -25 5 -31.5t28 -9.5l292 -16v-131zM506 731h162q76 0 130 11.5t106 41t79 93t27 157.5q0 150 -80 210.5t-240 60.5h-184 v-574z" />
<glyph unicode="Q" horiz-adv-x="1572" d="M1163 -195l47 -147q-111 -59 -239 -59q-160 0 -228.5 71.5t-68.5 206.5q0 41 8 107q-301 27 -450.5 229.5t-149.5 531.5q0 338 188.5 551t532.5 213q338 0 510 -206.5t172 -534.5q0 -334 -149.5 -539.5t-434.5 -242.5q-6 -39 -6 -80q0 -66 28.5 -97.5t98 -32t141.5 28.5z M784 172q211 0 332 142.5t121 435.5q0 276 -115.5 418.5t-322.5 142.5q-213 0 -341 -144.5t-128 -418.5q0 -289 120.5 -432.5t333.5 -143.5z" />
<glyph unicode="R" horiz-adv-x="1390" d="M1384 0h-559v129l136 18l-154 388q-18 47 -47 67.5t-80 20.5h-174v-435q0 -25 5 -31.5t28 -9.5l131 -16v-131h-564v131l130 14q20 2 26 10.5t6 30.5v1108q0 25 -6 32t-26 9l-130 15v133h656q133 0 227 -34t144.5 -93.5t73 -128t22.5 -150.5q0 -287 -277 -395 q43 -20 66.5 -57t56.5 -121l123 -314q18 -33 62 -38l124 -21v-131zM506 797h151q150 0 237 58t87 212q0 135 -81 186.5t-257 51.5h-137v-508z" />
<glyph unicode="S" horiz-adv-x="1204" d="M1061 1065l-176 16l-29 170q-6 31 -20 39q-55 33 -181 33q-137 0 -208.5 -56.5t-71.5 -156.5q0 -45 18.5 -82t41 -59.5t69.5 -45t79.5 -33.5t94.5 -30q82 -25 124 -40t110.5 -52t103.5 -78t62.5 -110.5t27.5 -157.5q0 -229 -154.5 -338t-400.5 -109q-129 0 -257 26 t-190 54v361h175l40 -185q4 -20 10.5 -27t24.5 -14q109 -31 209 -30q305 0 305 231q0 59 -22.5 102.5t-70.5 72t-90 45t-116 36.5q-201 59 -274 107q-158 104 -158 321q0 215 146.5 324.5t382.5 109.5q203 0 395 -75v-369z" />
<glyph unicode="T" horiz-adv-x="1366" d="M1061 0h-742v133l211 14q20 2 26.5 9.5t6.5 31.5v1119h-274q-29 0 -33 -23l-33 -178h-172v377h1264v-377h-170l-33 178q-4 23 -33 23h-276v-1119q0 -23 5 -29.5t28 -8.5l225 -17v-133z" />
<glyph unicode="U" horiz-adv-x="1611" d="M1147 545v751q0 25 -6 32t-27 9l-129 15v131h547v-131l-137 -17q-23 -2 -28 -9t-5 -30v-786q0 -535 -561 -535q-289 0 -420 133.5t-131 407.5v780q0 25 -6 32t-27 9l-129 15v131h571v-131l-137 -17q-23 -2 -28 -9t-5 -30v-745q0 -197 75 -287t249 -90q176 0 255 84 t79 287z" />
<glyph unicode="V" horiz-adv-x="1454" d="M903 0h-321l-430 1294q-8 25 -50 35l-92 23l21 131h534v-131l-168 -19l351 -1126h8l344 1126l-164 19l20 131h482v-131l-86 -23q-41 -10 -52 -39z" />
<glyph unicode="W" horiz-adv-x="2074" d="M1595 0h-315l-238 862h-6l-233 -862h-303l-326 1294q-10 31 -45 37l-113 21l21 131h559v-131l-178 -19l250 -1091h8l256 952h252l262 -965h10l252 1104l-180 19l20 131h510v-131l-102 -19q-39 -8 -47 -39z" />
<glyph unicode="X" horiz-adv-x="1490" d="M1454 0h-571v131l155 19l-317 454l-311 -454l153 -19v-131h-514v127l113 23q31 8 53 38l389 549l-393 557q-16 27 -49 35l-101 23l21 131h539v-131l-158 -19l297 -436l307 436l-154 19l21 131h469v-131l-94 -23q-29 -6 -52 -39l-378 -524l419 -578q16 -27 50 -34l106 -23 v-131z" />
<glyph unicode="Y" horiz-adv-x="1314" d="M1036 0h-714v131l198 14q20 2 26.5 9.5t6.5 31.5v379l-408 729q-14 27 -49 35l-92 23l21 131h518v-131l-156 -19l291 -559h10l293 559l-154 19l21 131h463v-131l-86 -23q-39 -10 -51 -39l-381 -721v-381q0 -25 5 -31.5t27 -9.5l211 -16v-131z" />
<glyph unicode="Z" horiz-adv-x="1341" d="M1237 0h-1135v154l820 1153h-551q-29 0 -33 -23l-39 -190l-172 -7v396h1081v-160l-809 -1149h594q29 0 33 23l39 219h172v-416z" />
<glyph unicode="[" horiz-adv-x="573" d="M506 -293h-389v1776h389v-127l-131 -21q-20 -2 -26.5 -10t-6.5 -31v-1396q0 -23 6 -31t27 -10l131 -21v-129z" />
<glyph unicode="\" horiz-adv-x="821" d="M805 -188h-215l-574 1734h213z" />
<glyph unicode="]" horiz-adv-x="573" d="M457 -293h-389v129l131 21q20 2 26 10t6 31v1396q0 23 -6 31t-26 10l-131 21v127h389v-1776z" />
<glyph unicode="^" horiz-adv-x="1175" d="M1114 612h-229l-303 547l-297 -547h-224l404 748h240z" />
<glyph unicode="_" d="M1024 -371h-1024v170h1024v-170z" />
<glyph unicode="`" d="M725 1243l-94 -88l-363 295l142 137z" />
<glyph unicode="a" horiz-adv-x="1120" d="M1085 0h-321l-21 121l-6 2q-154 -147 -360 -148q-293 0 -293 291q0 152 93 229.5t284 94.5l260 20v105q0 106 -35 152t-145 46q-49 0 -78 -4t-57.5 -17t-41 -45t-12.5 -83l-221 20q0 295 414 295q225 0 316 -78.5t91 -287.5v-527q0 -25 5.5 -32t27.5 -9l100 -14v-131z M721 281v180l-195 -17q-113 -10 -156.5 -44.5t-43.5 -110.5q0 -72 32.5 -101.5t98.5 -29.5q141 0 264 123z" />
<glyph unicode="b" horiz-adv-x="1232" d="M381 0h-227q27 152 26 295v1038q0 35 -26 43l-117 39l20 131h357v-577q176 111 338 110q180 0 285.5 -126t105.5 -390q0 -303 -116 -445.5t-320 -142.5q-184 0 -306 121h-8zM416 786v-503q125 -117 254 -117q229 0 229 383q0 164 -56.5 251t-158.5 87q-125 -1 -268 -101z " />
<glyph unicode="c" horiz-adv-x="1013" d="M885 227l67 -159q-150 -92 -366 -93q-258 0 -386 146.5t-128 394.5q0 279 148.5 421t395.5 142q207 0 334 -73v-291l-170 8l-24 135q-2 20 -23 29q-47 18 -127 18q-129 0 -209 -89t-80 -281q0 -371 308 -371q141 0 260 63z" />
<glyph unicode="d" horiz-adv-x="1236" d="M1186 0h-326l-18 121l-13 2q-147 -147 -348 -148q-391 0 -391 535q0 289 119 429t311 140q178 0 303 -92v348q0 33 -26 41l-117 39l20 131h353v-1360q0 -25 5 -32t27 -9l101 -14v-131zM817 305v488q-119 98 -237 98q-246 0 -246 -375q0 -184 53 -266t160 -82 q141 0 270 137z" />
<glyph unicode="e" horiz-adv-x="1060" d="M905 236l66 -164q-188 -96 -393 -97q-506 0 -506 560q0 266 135 405t348 139q434 0 434 -493q0 -61 -6 -119h-661q8 -150 73.5 -226.5t208.5 -76.5q129 0 301 72zM324 637h430q0 264 -203 264q-94 0 -156.5 -65.5t-70.5 -198.5z" />
<glyph unicode="f" horiz-adv-x="858" d="M741 0h-669v133l125 12q20 2 26 9.5t6 31.5v684q0 20 -16 21h-143v168h159v137q0 190 99.5 281.5t300.5 91.5q154 0 241.5 -56.5t90.5 -207.5l-220 -27q0 76 -27.5 101.5t-95.5 25.5q-92 0 -122.5 -46t-30.5 -142v-138q0 -20 16 -20h330v-168h-346v-698q0 -25 5 -32 t28 -9l243 -21v-131z" />
<glyph unicode="g" horiz-adv-x="1134" d="M1112 909l-192 -12q78 -100 77 -211q0 -172 -120.5 -270.5t-307.5 -98.5q-115 0 -172 19l-94 -156l252 -12q109 -6 169 -10t131 -16.5t107.5 -30t70.5 -48t47.5 -74.5t13.5 -106q0 -164 -140.5 -254t-404.5 -90q-489 0 -490 252q0 68 31 116t94 107q-94 41 -94 127 q0 59 51 117l34 39l43 49q19 23 36 39q-74 39 -117 118t-43 183q0 176 119 284.5t334 108.5q121 0 192 -20h373v-150zM788 694q0 104 -60 161.5t-168.5 57.5t-173 -56t-64.5 -167q0 -94 56 -149.5t175 -55.5q106 0 170.5 57.5t64.5 151.5zM662 -47l-316 18q-78 -82 -78 -143 q0 -125 287 -125q303 0 303 147q0 43 -28.5 66t-60 27t-107.5 10z" />
<glyph unicode="h" horiz-adv-x="1286" d="M1245 0h-512v129l96 14q23 2 29 11.5t6 31.5v476q0 45 -4 77.5t-17.5 69.5t-45 57.5t-78.5 20.5q-123 0 -281 -111v-590q0 -25 5.5 -32t27.5 -9l109 -14v-131h-508v129l98 16q20 2 26.5 10.5t6.5 30.5v1147q0 35 -27 43l-117 39l21 131h356v-598q193 131 355 131 q309 0 309 -370v-523q0 -25 5 -32t28 -9l112 -14v-131z" />
<glyph unicode="i" horiz-adv-x="624" d="M449 1413q0 -74 -41 -113.5t-113 -39.5q-74 0 -114 39.5t-40 113.5q0 72 40 111t114 39q72 0 113 -39t41 -111zM592 0h-545v129l123 16q20 2 26.5 10.5t6.5 30.5v660q0 35 -27 43l-113 39l21 131h354v-873q0 -25 5.5 -32t27.5 -9l121 -14v-131z" />
<glyph unicode="j" horiz-adv-x="606" d="M199 -80v926q0 33 -25 43l-127 39l21 131h366v-1182q0 -172 -79 -253t-240 -81q-96 0 -181.5 30t-126.5 65l78 139q82 -57 183 -58q74 0 102.5 45t28.5 156zM446 1413q0 -74 -40.5 -113.5t-112.5 -39.5t-113 39.5t-41 113.5q0 72 41 111t113 39t112.5 -39t40.5 -111z" />
<glyph unicode="k" horiz-adv-x="1232" d="M1217 0h-525v129l117 18l-223 392l-148 -164v-189q0 -25 5.5 -32t27.5 -9l115 -14v-131h-533v129l117 16q20 2 26.5 10.5t6.5 30.5v1147q0 35 -27 43l-117 39l21 131h358v-940l412 453h250v-131l-113 -23q-27 -4 -51 -31l-170 -186l291 -506q18 -31 61 -35l99 -18v-129z " />
<glyph unicode="l" horiz-adv-x="624" d="M586 0h-533v129l117 16q20 2 26.5 10.5t6.5 30.5v1147q0 35 -27 43l-117 39l21 131h358v-1360q0 -25 5.5 -32t27.5 -9l115 -14v-131z" />
<glyph unicode="m" horiz-adv-x="1849" d="M1808 0h-520v129l107 14q33 4 32 41v482q0 104 -25.5 159.5t-103.5 55.5q-125 0 -251 -82q8 -47 8 -115v-498q0 -25 5 -32t27 -9l95 -14v-131h-504v129l108 14q20 2 26.5 11.5t6.5 29.5v471q0 55 -3 88t-14 69t-39 53.5t-71 17.5q-121 0 -254 -105v-592q0 -25 5.5 -32 t27.5 -9l100 -14v-131h-499v129l98 16q20 2 26.5 10.5t6.5 30.5v660q0 35 -27 43l-113 39l21 131h303l16 -115l9 -2q180 137 350 137q174 0 244 -123q190 123 356 123q162 0 231.5 -90t69.5 -260v-543q0 -25 5 -32t28 -9l112 -14v-131z" />
<glyph unicode="n" horiz-adv-x="1286" d="M1245 0h-516v129l102 12q33 4 33 41v475q0 111 -27.5 168.5t-117.5 57.5q-133 0 -281 -107v-590q0 -25 5.5 -32t27.5 -9l109 -14v-131h-508v133l98 12q20 2 26.5 10.5t6.5 30.5v660q0 35 -27 43l-113 39l21 131h303l16 -113l9 -2q199 135 383 135q305 0 305 -374v-519 q0 -25 5 -32t28 -9l112 -14v-131z" />
<glyph unicode="o" horiz-adv-x="1173" d="M582 -25q-266 0 -388 145.5t-122 397.5q0 262 133 411.5t397 149.5q258 0 379 -143t121 -391q0 -268 -129 -419t-391 -151zM587.5 150q270.5 0 270.5 382q0 193 -64.5 281t-197.5 88q-279 0 -279 -371q0 -380 270.5 -380z" />
<glyph unicode="p" horiz-adv-x="1249" d="M666 -434h-586v133l84 12q23 4 29 11.5t6 31.5v1092q0 33 -27 43l-113 39l21 131h305l18 -115l7 -2q174 137 360 137q182 0 285.5 -125t103.5 -391q0 -109 -19.5 -205t-63.5 -186t-131 -143.5t-208 -53.5q-168 0 -307 107v-328q0 -25 6 -32t29 -9l201 -16v-131zM434 778 v-506q121 -109 252 -108q231 0 232 385q0 338 -216 338q-133 0 -268 -109z" />
<glyph unicode="q" horiz-adv-x="1208" d="M1186 -434h-551v131l164 16q23 2 30 9.5t7 29.5v365q-160 -141 -347 -142q-399 0 -399 535q0 289 121 429t311 140q168 0 309 -112l27 92h213q-20 -184 -20 -305v-1002q0 -23 6 -31t26 -10l103 -12v-133zM817 305v490q-117 96 -239 96q-125 0 -184.5 -100.5t-59.5 -274.5 q0 -350 217 -350q119 0 266 139z" />
<glyph unicode="r" horiz-adv-x="919" d="M666 0h-594v133l98 12q20 2 26.5 10.5t6.5 30.5v660q0 33 -27 43l-113 39l21 131h305l23 -150l6 -2q131 172 301 172q94 0 160 -18v-336l-185 8l-24 127q-2 23 -25 23q-94 0 -207 -107v-588q0 -25 6.5 -31.5t28.5 -9.5l193 -16v-131z" />
<glyph unicode="s" horiz-adv-x="964" d="M866 743l-170 11l-22 118q-2 20 -23 29q-66 20 -147 21q-195 0 -195 -129q0 -27 7.5 -47.5t29 -37t36.5 -26.5t52 -22l54 -16q17 -5 65 -15q61 -14 99 -25.5t90.5 -37t82 -56.5t51 -83t21.5 -120q0 -170 -122 -251t-312 -81q-121 0 -236.5 25t-148.5 47v279l170 -11 l20 -125q6 -23 25 -28q92 -29 184 -29q205 0 205 141q0 49 -40 83t-72.5 43.5t-123.5 29.5q-23 6 -32 8q-57 12 -94 23.5t-84.5 35t-75 53.5t-47 78t-19.5 111q0 174 122 257t306 83q201 0 344 -59v-277z" />
<glyph unicode="t" horiz-adv-x="868" d="M768 195l47 -148q-156 -72 -303 -72q-160 0 -232.5 72t-72.5 225v598q0 20 -17 21h-147v145q115 14 172 90t78 220h149v-267q0 -20 17 -20h297v-168h-314v-557q0 -96 32 -135t116 -39q78 0 178 35z" />
<glyph unicode="u" horiz-adv-x="1282" d="M1227 0h-324l-18 125l-6 2q-190 -152 -383 -152q-162 0 -228.5 83t-66.5 266v532q0 25 -5.5 33t-27.5 12l-105 25l19 133h354v-684q0 -111 28 -161t109 -50q145 0 285 143v549q0 25 -5 33t-28 12l-98 25l18 133h349v-873q0 -37 26 -41l107 -14v-131z" />
<glyph unicode="v" horiz-adv-x="1220" d="M752 0h-273l-338 870q-8 27 -43 35l-86 19l27 135h483v-135l-137 -17l252 -682h8l254 682l-135 17l22 135h422v-135l-69 -13q-41 -6 -52 -34z" />
<glyph unicode="w" horiz-adv-x="1753" d="M1350 0h-256l-195 762h-6l-186 -762h-287l-279 870q-8 27 -43 35l-86 19l27 135h461v-135l-123 -17l196 -671h9l206 794h254l197 -790h8l193 667l-125 17l22 135h404v-135l-74 -13q-41 -8 -51 -41z" />
<glyph unicode="x" horiz-adv-x="1200" d="M1180 0h-525v131l115 19l-199 260l-211 -260l125 -19v-131h-460v129l94 18q35 6 61 37l281 336l-281 348q-23 27 -49 35l-86 23l21 133h473v-133l-115 -17l190 -243l207 243l-125 17l21 133h420v-133l-90 -21q-29 -10 -56 -39l-264 -311l295 -369q29 -33 55 -36l103 -19 v-131z" />
<glyph unicode="y" horiz-adv-x="1222" d="M817 -434h-606v135l145 16q25 2 34 11.5t22 33.5l104 240l-377 868q-10 27 -43 35l-84 19l27 135h477v-135l-133 -17l256 -633h8l254 633l-135 17l22 135h422v-135l-67 -11q-39 -6 -51 -34l-480 -1160l205 -20v-133z" />
<glyph unicode="z" d="M961 0h-885v135l588 764h-359q-18 0 -22 -27l-25 -122l-170 -11v320h850v-139l-580 -762h381q18 0 23 26l24 148l175 8v-340z" />
<glyph unicode="{" horiz-adv-x="628" d="M565 -166l-20 -137q-211 10 -297 67.5t-86 200.5q0 55 14 186.5t14 202.5q0 94 -40.5 129t-120.5 39v137q80 4 120.5 39t40.5 129q0 72 -14 205t-14 189q0 143 86 200.5t297 67.5l20 -137q-98 -23 -131 -48.5t-33 -99.5q0 -51 14.5 -180t14.5 -197q0 -182 -135 -237 q66 -27 100.5 -79t34.5 -157q0 -68 -14.5 -194.5t-14.5 -177.5q0 -74 33 -101t131 -47z" />
<glyph unicode="|" horiz-adv-x="573" d="M393 -293h-213v1839h213v-1839z" />
<glyph unicode="}" horiz-adv-x="628" d="M84 -303l-21 137q98 20 131 47t33 101q0 51 -14 178t-14 194q0 104 34.5 156.5t100.5 79.5q-135 55 -135 237q0 68 14 197t14 180q0 74 -32.5 99.5t-131.5 48.5l21 137q211 -10 297 -67.5t86 -200.5q0 -55 -14.5 -188.5t-14.5 -205.5q0 -94 41 -128.5t121 -39.5v-137 q-80 -4 -121 -38.5t-41 -129.5q0 -72 14.5 -203t14.5 -186q0 -143 -86 -200.5t-297 -67.5z" />
<glyph unicode="~" horiz-adv-x="1021" d="M854 899l129 -47q-25 -127 -73 -189.5t-140 -62.5q-78 0 -239.5 47t-219.5 47q-49 0 -79.5 -22.5t-65.5 -81.5l-125 57q84 240 250 240q82 0 235.5 -47t214.5 -47q47 0 70 22.5t43 83.5z" />
<glyph unicode="&#xa1;" horiz-adv-x="552" d="M178 651h195l28 -743v-348h-256v348zM428 925.5q0 -141.5 -151.5 -141.5t-151.5 141.5t151.5 141.5t151.5 -141.5z" />
<glyph unicode="&#xa2;" horiz-adv-x="1036" d="M674 240q53 4 80 14q16 4 22 31l23 129l164 8v-283q-106 -61 -289 -73v-203h-166v209q-406 53 -406 503q0 221 107.5 351.5t298.5 160.5v213h166v-206q166 -8 284 -72v-283l-161 9l-23 126q-6 25 -24 31q-31 10 -76 17v-682zM352 588q0 -268 156 -330v643 q-156 -63 -156 -313z" />
<glyph unicode="&#xa3;" horiz-adv-x="1140" d="M1075 0h-956l-29 147q102 72 128 151t26 271v25h-156v178h156v111q0 451 456 450q80 0 141.5 -13t118 -45t87 -97.5t30.5 -161.5l-215 -29q-2 90 -33.5 131t-128.5 41q-117 0 -169 -67.5t-52 -204.5v-115h340v-178h-340q0 -164 -23.5 -257t-105.5 -175h496q23 0 28 24 l33 168h168v-354z" />
<glyph unicode="&#xa4;" horiz-adv-x="1167" d="M1163 145l-147 -143l-180 178q-106 -68 -254 -67q-164 0 -263 67l-178 -178l-141 141l186 187q-53 96 -53 243q0 127 57 228l-184 182l148 147l172 -174q109 78 268.5 78t263.5 -73l168 167l139 -143l-176 -176q53 -100 53 -227q0 -137 -63 -254zM590 301q111 0 172 77 t61 195q0 127 -60.5 197t-176.5 70q-113 0 -173.5 -74t-60.5 -193q0 -121 59.5 -196.5t178.5 -75.5z" />
<glyph unicode="&#xa5;" horiz-adv-x="1155" d="M977 592h-270v-111h270v-141h-270v-152q0 -25 5 -31.5t27 -9.5l209 -16v-131h-712v131l198 14q20 2 26.5 9.5t6.5 31.5v154h-262v141h262v111h-262v141h174l-252 373q-16 27 -49 35l-92 22l20 131h504v-131l-139 -18l231 -365h8l236 365l-137 18l20 131h442v-131l-86 -22 q-31 -8 -51 -39l-246 -369h189v-141z" />
<glyph unicode="&#xa6;" horiz-adv-x="573" d="M393 -293h-213v795h213v-795zM393 834h-213v712h213v-712z" />
<glyph unicode="&#xa7;" horiz-adv-x="1138" d="M154 -219v274l163 -10l23 -127q4 -20 25 -27q80 -31 174 -30q195 0 194 141q0 66 -60.5 101.5t-146.5 55t-172 46t-146.5 95.5t-60.5 181q0 162 150 273q-100 80 -100 217q0 158 115.5 238.5t291.5 80.5q201 0 344 -59v-277l-170 13l-20 120q-4 20 -23 27q-57 20 -145 21 q-92 0 -138 -38t-46 -102q0 -51 43 -84.5t108.5 -49t141 -39t141 -52.5t108.5 -93.5t43 -156.5q0 -168 -145 -272q98 -74 98 -201q0 -176 -113.5 -257t-298.5 -81q-113 0 -229 26t-149 46zM569 647l-127 35q-96 -55 -96 -158q0 -66 51.5 -99.5t153.5 -64.5l141 -41 q96 59 96 168q0 47 -34.5 79t-71.5 46.5t-113 34.5z" />
<glyph unicode="&#xa8;" d="M428 1357.5q0 -57.5 -35 -91t-92 -33.5t-93 33.5t-36 91.5q0 55 36 89t93 34t92 -33t35 -90.5zM846 1357.5q0 -57.5 -35 -91t-92 -33.5t-92 33.5t-35 91t35 90.5t92 33t92 -33t35 -90.5z" />
<glyph unicode="&#xa9;" horiz-adv-x="1566" d="M1466 653q0 -307 -189.5 -494.5t-494.5 -187.5q-328 0 -505 182.5t-177 471.5q0 311 197 495.5t489 184.5q315 0 497.5 -176.5t182.5 -475.5zM786 92q254 0 399.5 146.5t145.5 402.5q0 258 -149.5 400.5t-395.5 142.5q-240 0 -392 -149.5t-152 -407.5q0 -250 145 -392.5 t399 -142.5zM1040 506v-209q-86 -51 -233 -51q-199 0 -292 103.5t-93 283.5q0 186 100.5 297.5t290.5 111.5q121 0 229 -41v-221l-98 8l-16 93q-4 23 -23 30q-41 16 -104 17q-100 0 -159.5 -71t-59.5 -220q0 -279 231 -279q66 0 94 15q14 8 21 28l24 105h88z" />
<glyph unicode="&#xaa;" horiz-adv-x="849" d="M778 575h-239l-15 74h-6q-104 -90 -235 -90q-201 0 -201 191q0 100 63.5 150t192.5 61l166 12v67q0 61 -20.5 88t-86.5 27q-57 0 -82.5 -16.5t-27.5 -73.5l-176 14q0 199 290 199q158 0 222.5 -52t64.5 -188v-327q0 -16 4 -20.5t19 -6.5l67 -10v-99zM504 752v118 l-111 -10q-68 -6 -93.5 -27.5t-25.5 -68.5q0 -72 74 -72q82 1 156 60z" />
<glyph unicode="&#xab;" horiz-adv-x="921" d="M479 211h-198l-179 317l183 308h200l-157 -283q-12 -18 -2 -39zM829 211h-198l-178 317l182 308h201l-158 -283q-12 -18 -2 -39z" />
<glyph unicode="&#xac;" horiz-adv-x="1167" d="M967 375h-191v194h-590v195h781v-389z" />
<glyph unicode="&#xad;" horiz-adv-x="636" d="M602 489h-555v213h555v-213z" />
<glyph unicode="&#xae;" horiz-adv-x="921" d="M840 983q0 -168 -105.5 -273.5t-273.5 -105.5q-182 0 -280.5 101.5t-98.5 263.5q0 172 109.5 276.5t271.5 104.5q172 0 274.5 -100.5t102.5 -266.5zM750 977q0 137 -80 212t-207 75q-125 0 -207 -79t-82 -214q0 -131 77 -206t212 -75q133 0 210 77t77 210zM659 786h-172 v43l39 7l-41 79q-14 25 -36 25h-29v-94q0 -10 10 -12l33 -5v-43h-168v43l31 5q10 2 10 14v264q0 14 -12 16l-29 5v45h180q137 0 137 -111q0 -80 -75 -106q20 -6 34 -37l37 -74q4 -10 17 -12l34 -9v-43zM420 999h29q76 0 75 64q0 51 -65 51h-39v-115z" />
<glyph unicode="&#xaf;" d="M829 1241h-636v168h636v-168z" />
<glyph unicode="&#xb0;" horiz-adv-x="616" d="M309 1257q47 0 74 30t27 79t-27 78t-74 29q-45 0 -73.5 -30t-28.5 -83q0 -47 27.5 -75t74.5 -28zM530 1366q0 -100 -60 -160.5t-160.5 -60.5t-162 58.5t-61.5 156.5q0 104 63.5 164.5t160 60.5t158.5 -58.5t62 -160.5z" />
<glyph unicode="&#xb1;" horiz-adv-x="1167" d="M973 0h-780v195h780v-195zM682 274h-201v289h-288v195h288v299h201v-299h291v-195h-291v-289z" />
<glyph unicode="&#xb2;" horiz-adv-x="765" d="M715 717h-660v121l267 311q90 106 120.5 155.5t30.5 100.5q0 94 -115 94q-59 0 -85.5 -27.5t-26.5 -97.5l-187 19q0 252 316 252q303 0 303 -226q0 -78 -37 -145.5t-111 -153.5l-233 -274h238q10 0 18 16l18 105h144v-250z" />
<glyph unicode="&#xb3;" horiz-adv-x="776" d="M532 1200v-6q180 -39 181 -219q0 -129 -96.5 -202t-251.5 -73q-217 0 -334 121l106 125q96 -92 213 -92q152 0 152 133q0 127 -152 127q-35 0 -96 -10v139l70 6q78 8 119.5 41t41.5 105q0 102 -112 102q-61 0 -89 -27.5t-28 -91.5l-186 21q0 246 315 246q307 0 307 -230 q0 -82 -44 -138.5t-116 -76.5z" />
<glyph unicode="&#xb4;" d="M745 1450l-362 -295l-94 88l315 344z" />
<glyph unicode="&#xb5;" horiz-adv-x="1288" d="M1219 0h-328l-17 121h-10q-135 -145 -284 -146q-106 0 -170 60l-4 -4l26 -391h-242v1419h236v-694q0 -104 30.5 -154.5t123.5 -50.5q139 0 268 149v750h235v-873q0 -37 27 -41l109 -14v-131z" />
<glyph unicode="&#xb6;" horiz-adv-x="1200" d="M1135 -272h-340v1437h-144v-1437h-336v131l136 16q29 2 28 35v434q-209 14 -321.5 139t-112.5 332q0 262 157.5 384t413.5 122h519v-131l-138 -16q-23 -2 -27.5 -9.5t-4.5 -29.5v-1225q0 -14 3 -21.5t9 -9.5t20 -4l138 -16v-131z" />
<glyph unicode="&#xb7;" horiz-adv-x="466" d="M385 643q0 -141 -151.5 -141t-151.5 141t151.5 141t151.5 -141z" />
<glyph unicode="&#xb8;" d="M285 -492l14 119q29 -4 57 -4q145 0 146 107q0 88 -140 90l33 241l129 -16l-18 -137q156 -33 156 -174q0 -96 -72 -165t-217 -69q-65 0 -88 8z" />
<glyph unicode="&#xb9;" horiz-adv-x="555" d="M530 717h-495v106l125 15q20 2 20 28v592q0 23 -18 29l-119 24l14 113h336v-760q0 -16 3 -20t20 -8l114 -11v-108z" />
<glyph unicode="&#xba;" horiz-adv-x="862" d="M428 559q-182 0 -268 94.5t-86 261.5q0 170 94 266.5t276 96.5q178 0 261 -93t83 -253q0 -176 -89 -274.5t-271 -98.5zM430 694q162 0 162 228q0 225 -154 225q-168 0 -168 -225q0 -121 39 -174.5t121 -53.5z" />
<glyph unicode="&#xbb;" horiz-adv-x="919" d="M305 211h-201l154 293q12 20 2 39l-158 293h201l180 -314zM655 211h-200l153 293q12 20 2 39l-157 293h200l181 -314z" />
<glyph unicode="&#xbc;" horiz-adv-x="1894" d="M633 575h-496v107l125 14q20 2 21 29v592q0 23 -19 29l-119 24l15 113h336v-760q0 -16 3 -20.5t19 -8.5l115 -10v-109zM686 -35h-217l733 1518h215zM1642 0h-196v168h-406v143l355 592h247v-575h113v-160h-113v-168zM1446 328v374l-223 -374h223z" />
<glyph unicode="&#xbd;" horiz-adv-x="1894" d="M625 575h-496v107l125 14q20 2 20 29v592q0 23 -18 29l-119 24l15 113h335v-760q0 -16 3.5 -20.5t19.5 -8.5l115 -10v-109zM621 -35h-218l734 1518h215zM1763 0h-659v121l266 311q90 106 121 155.5t31 100.5q0 94 -115 94q-59 0 -86 -27.5t-27 -97.5l-186 19 q0 252 315 252q303 0 303 -226q0 -78 -36.5 -145.5t-110.5 -153.5l-233 -274h237q10 0 19 16l18 105h143v-250z" />
<glyph unicode="&#xbe;" horiz-adv-x="1894" d="M612 1059v-6q180 -39 181 -219q0 -129 -96.5 -202t-252.5 -73q-217 0 -333 121l106 125q96 -92 213 -92q152 0 152 133q0 127 -152 127q-35 0 -96 -10v139l69 6q78 8 120 41t42 104q0 102 -112 103q-61 0 -89 -28t-28 -91l-186 20q0 246 315 246q307 0 307 -229 q0 -82 -44 -138.5t-116 -76.5zM752 -35h-217l733 1518h215zM1671 0h-196v168h-406v143l354 592h248v-575h113v-160h-113v-168zM1475 328v374l-224 -374h224z" />
<glyph unicode="&#xbf;" horiz-adv-x="1009" d="M528 653h236v-366q-412 -33 -412 -324q0 -98 59.5 -153.5t155.5 -55.5q106 0 160 29q20 10 25 43l20 123l186 14v-321q-213 -82 -401 -82q-471 0 -471 405q0 199 120 318.5t322 150.5v219zM494 925.5q0 141.5 151.5 141.5t151.5 -141.5t-151.5 -141.5t-151.5 141.5z" />
<glyph unicode="&#xc0;" horiz-adv-x="1499" d="M1487 0h-559v131l168 19l-95 276h-546l-95 -276l164 -19v-131h-512v129l88 23q41 10 52 38l450 1293h289l452 -1297q8 -25 50 -34l94 -23v-129zM950 606l-217 649h-6l-219 -649h442zM907 1569l-432 196l94 172l402 -258z" />
<glyph unicode="&#xc1;" horiz-adv-x="1499" d="M1487 0h-559v131l168 19l-95 276h-546l-95 -276l164 -19v-131h-512v129l88 23q41 10 52 38l450 1293h289l452 -1297q8 -25 50 -34l94 -23v-129zM950 606l-217 649h-6l-219 -649h442zM1028 1767l-432 -198l-64 112l402 258z" />
<glyph unicode="&#xc2;" horiz-adv-x="1499" d="M1487 0h-559v131l168 19l-95 276h-546l-95 -276l164 -19v-131h-512v129l88 23q41 10 52 38l450 1293h289l452 -1297q8 -25 50 -34l94 -23v-129zM950 606l-217 649h-6l-219 -649h442zM989 1569l-244 170l-243 -170l-94 96l243 217h189l243 -217z" />
<glyph unicode="&#xc3;" horiz-adv-x="1499" d="M1487 0h-559v131l168 19l-95 276h-546l-95 -276l164 -19v-131h-512v129l88 23q41 10 52 38l450 1293h289l452 -1297q8 -25 50 -34l94 -23v-129zM950 606l-217 649h-6l-219 -649h442zM1112 1786l-47 -76q-37 -59 -66.5 -85t-68.5 -26q-35 0 -117 21q-207 57 -223 59 q-18 4 -33 -10l-72 -74l-100 68l59 96q57 92 129 92q25 0 103 -18q184 -53 233 -61q16 -2 29 10l66 71z" />
<glyph unicode="&#xc4;" horiz-adv-x="1499" d="M1487 0h-559v131l168 19l-95 276h-546l-95 -276l164 -19v-131h-512v129l88 23q41 10 52 38l450 1293h289l452 -1297q8 -25 50 -34l94 -23v-129zM950 606l-217 649h-6l-219 -649h442zM664 1724.5q0 -57.5 -35 -91.5t-92.5 -34t-93 34t-35.5 91.5t35.5 91t93 33.5 t92.5 -33.5t35 -91zM1081 1724.5q0 -57.5 -34.5 -91.5t-92 -34t-92.5 34t-35 91.5t35 91t92.5 33.5t92 -33.5t34.5 -91z" />
<glyph unicode="&#xc5;" horiz-adv-x="1499" d="M944 1618q0 -82 -53 -139l452 -1293q8 -25 50 -34l94 -23v-129h-559v131l168 19l-95 276h-546l-95 -276l164 -19v-131h-512v129l88 23q41 10 52 38l448 1289q-51 51 -51 133q0 90 57.5 143t141 53t140 -51t56.5 -139zM950 606l-217 649h-6l-219 -649h442zM748 1536 q74 0 73 82q0 78 -73 78q-78 0 -78 -80t78 -80z" />
<glyph unicode="&#xc6;" horiz-adv-x="2037" d="M1958 0h-1090v131l129 14q33 2 33 37v459h-428l-256 -491l152 -19v-131h-486v131l78 19q47 10 78 67l584 1116l-158 17v133h1319v-369l-174 8l-27 152q-2 20 -10 26.5t-29 6.5h-411v-486h520v-180h-520v-467h458q29 0 33 23l33 180h172v-377zM1030 821v486h-94l-252 -486 h346z" />
<glyph unicode="&#xc7;" horiz-adv-x="1394" d="M602 -492l14 119q29 -4 58 -4q145 0 145 107q0 88 -139 90l20 160q-315 25 -465.5 226.5t-150.5 543.5q0 340 192.5 549.5t554.5 209.5q285 0 457 -112v-359l-174 13l-35 198q-2 27 -28 35q-115 37 -230 37q-227 0 -357 -147.5t-130 -423.5q0 -289 125 -438.5t348 -149.5 q166 0 254 35q29 8 33 39l32 188h166v-338q-152 -100 -461 -111l-8 -67q156 -33 156 -174q0 -96 -71.5 -165t-217.5 -69q-65 0 -88 8z" />
<glyph unicode="&#xc8;" horiz-adv-x="1296" d="M1204 0h-1098v131l130 14q20 2 26 10.5t6 30.5v1108q0 25 -6 32t-26 9l-130 15v133h1053v-369l-174 8l-29 158q-6 27 -34 27h-414v-471h520v-179h-520v-483h459q29 0 32 23l33 180h172v-377zM815 1569l-432 196l94 172l402 -258z" />
<glyph unicode="&#xc9;" horiz-adv-x="1296" d="M1204 0h-1098v131l130 14q20 2 26 10.5t6 30.5v1108q0 25 -6 32t-26 9l-130 15v133h1053v-369l-174 8l-29 158q-6 27 -34 27h-414v-471h520v-179h-520v-483h459q29 0 32 23l33 180h172v-377zM936 1767l-432 -198l-64 112l402 258z" />
<glyph unicode="&#xca;" horiz-adv-x="1296" d="M1204 0h-1098v131l130 14q20 2 26 10.5t6 30.5v1108q0 25 -6 32t-26 9l-130 15v133h1053v-369l-174 8l-29 158q-6 27 -34 27h-414v-471h520v-179h-520v-483h459q29 0 32 23l33 180h172v-377zM897 1569l-244 170l-243 -170l-95 96l244 217h189l243 -217z" />
<glyph unicode="&#xcb;" horiz-adv-x="1296" d="M1204 0h-1098v131l130 14q20 2 26 10.5t6 30.5v1108q0 25 -6 32t-26 9l-130 15v133h1053v-369l-174 8l-29 158q-6 27 -34 27h-414v-471h520v-179h-520v-483h459q29 0 32 23l33 180h172v-377zM571 1724.5q0 -57.5 -34.5 -91.5t-92 -34t-93.5 34t-36 91.5t36 91t93.5 33.5 t92 -33.5t34.5 -91zM989 1724.5q0 -57.5 -34.5 -91.5t-92 -34t-92.5 34t-35 91.5t35 91t92.5 33.5t92 -33.5t34.5 -91z" />
<glyph unicode="&#xcc;" horiz-adv-x="813" d="M717 0h-613v131l150 14q20 2 26.5 9.5t6.5 31.5v1110q0 25 -6.5 32t-26.5 9l-150 15v131h613v-131l-158 -17q-23 -2 -28 -9t-5 -30v-1108q0 -25 5.5 -31.5t27.5 -9.5l158 -16v-131zM571 1569l-432 196l94 172l402 -258z" />
<glyph unicode="&#xcd;" horiz-adv-x="813" d="M717 0h-613v131l150 14q20 2 26.5 9.5t6.5 31.5v1110q0 25 -6.5 32t-26.5 9l-150 15v131h613v-131l-158 -17q-23 -2 -28 -9t-5 -30v-1108q0 -25 5.5 -31.5t27.5 -9.5l158 -16v-131zM692 1767l-432 -198l-63 112l401 258z" />
<glyph unicode="&#xce;" horiz-adv-x="813" d="M717 0h-613v131l150 14q20 2 26.5 9.5t6.5 31.5v1110q0 25 -6.5 32t-26.5 9l-150 15v131h613v-131l-158 -17q-23 -2 -28 -9t-5 -30v-1108q0 -25 5.5 -31.5t27.5 -9.5l158 -16v-131zM653 1569l-243 170l-244 -170l-94 96l243 217h189l244 -217z" />
<glyph unicode="&#xcf;" horiz-adv-x="813" d="M717 0h-613v131l150 14q20 2 26.5 9.5t6.5 31.5v1110q0 25 -6.5 32t-26.5 9l-150 15v131h613v-131l-158 -17q-23 -2 -28 -9t-5 -30v-1108q0 -25 5.5 -31.5t27.5 -9.5l158 -16v-131zM328 1724.5q0 -57.5 -35 -91.5t-92.5 -34t-93 34t-35.5 91.5t35.5 91t93 33.5 t92.5 -33.5t35 -91zM745 1724.5q0 -57.5 -34.5 -91.5t-92 -34t-92 34t-34.5 91.5t34.5 91t92 33.5t92 -33.5t34.5 -91z" />
<glyph unicode="&#xd0;" horiz-adv-x="1576" d="M723 0h-598v131l129 14q20 2 26.5 10.5t6.5 30.5v451h-129v186h129v471q0 25 -6.5 32t-26.5 9l-129 15v133h633q375 0 555 -187.5t180 -531.5q0 -354 -192.5 -559t-577.5 -205zM526 178h183q276 0 407 147.5t131 415.5q0 307 -128 435.5t-398 128.5h-195v-482h351v-186 h-351v-459z" />
<glyph unicode="&#xd1;" horiz-adv-x="1697" d="M1440 0h-266l-711 1171v-983q0 -25 5 -31.5t28 -9.5l137 -16v-131h-527v131l130 14q20 2 26 10.5t6 30.5v1110q0 25 -6 32t-26 9l-130 15v133h445l694 -1168v979q0 25 -6 32t-27 9l-129 15v131h527v-131l-137 -17q-23 -2 -28 -9t-5 -30v-1296zM1198 1786l-47 -76 q-37 -59 -66.5 -85t-68.5 -26q-35 0 -117 21q-207 57 -223 59q-18 4 -33 -10l-72 -74l-100 68l59 96q57 92 129 92q25 0 103 -18q184 -53 233 -61q16 -2 29 10l66 71z" />
<glyph unicode="&#xd2;" horiz-adv-x="1572" d="M778 -25q-348 0 -520 208t-172 562q0 338 188.5 551t532.5 213q229 0 386 -101t226.5 -264t69.5 -376q0 -371 -180.5 -582t-530.5 -211zM786 174q213 0 335 141.5t122 434.5q0 276 -115.5 418.5t-322.5 142.5q-215 0 -343 -144.5t-128 -418.5q0 -289 119.5 -431.5 t332.5 -142.5zM967 1573l-432 196l94 173l401 -259z" />
<glyph unicode="&#xd3;" horiz-adv-x="1572" d="M778 -25q-348 0 -520 208t-172 562q0 338 188.5 551t532.5 213q229 0 386 -101t226.5 -264t69.5 -376q0 -371 -180.5 -582t-530.5 -211zM786 174q213 0 335 141.5t122 434.5q0 276 -115.5 418.5t-322.5 142.5q-215 0 -343 -144.5t-128 -418.5q0 -289 119.5 -431.5 t332.5 -142.5zM1087 1772l-432 -199l-63 113l401 258z" />
<glyph unicode="&#xd4;" horiz-adv-x="1572" d="M778 -25q-348 0 -520 208t-172 562q0 338 188.5 551t532.5 213q229 0 386 -101t226.5 -264t69.5 -376q0 -371 -180.5 -582t-530.5 -211zM786 174q213 0 335 141.5t122 434.5q0 276 -115.5 418.5t-322.5 142.5q-215 0 -343 -144.5t-128 -418.5q0 -289 119.5 -431.5 t332.5 -142.5zM1049 1573l-244 170l-244 -170l-94 96l244 217h188l244 -217z" />
<glyph unicode="&#xd5;" horiz-adv-x="1572" d="M778 -25q-348 0 -520 208t-172 562q0 338 188.5 551t532.5 213q229 0 386 -101t226.5 -264t69.5 -376q0 -371 -180.5 -582t-530.5 -211zM786 174q213 0 335 141.5t122 434.5q0 276 -115.5 418.5t-322.5 142.5q-215 0 -343 -144.5t-128 -418.5q0 -289 119.5 -431.5 t332.5 -142.5zM1171 1790l-47 -76q-37 -59 -66.5 -84.5t-68.5 -25.5q-35 0 -117 20q-207 57 -223 59q-18 4 -33 -10l-71 -74l-101 68l60 96q57 92 129 92q25 0 102 -18q184 -53 234 -61q14 -2 28 10l66 72z" />
<glyph unicode="&#xd6;" horiz-adv-x="1572" d="M778 -25q-348 0 -520 208t-172 562q0 338 188.5 551t532.5 213q229 0 386 -101t226.5 -264t69.5 -376q0 -371 -180.5 -582t-530.5 -211zM786 174q213 0 335 141.5t122 434.5q0 276 -115.5 418.5t-322.5 142.5q-215 0 -343 -144.5t-128 -418.5q0 -289 119.5 -431.5 t332.5 -142.5zM723 1728.5q0 -57.5 -35 -91t-92 -33.5t-93 33.5t-36 91t36 91t93 33.5t92 -33.5t35 -91zM1141 1728.5q0 -57.5 -35 -91t-92.5 -33.5t-92 33.5t-34.5 91t34.5 91t92 33.5t92.5 -33.5t35 -91z" />
<glyph unicode="&#xd7;" horiz-adv-x="1167" d="M793 305l-211 211l-209 -211l-142 139l211 213l-211 213l142 142l209 -213l211 213l141 -142l-211 -213l211 -213z" />
<glyph unicode="&#xd8;" horiz-adv-x="1572" d="M532 -160h-221l92 223q-317 180 -317 682q0 338 188.5 551t532.5 213q100 0 194 -22l54 129h219l-86 -205q152 -92 226.5 -260t74.5 -383q0 -371 -180.5 -582t-530.5 -211q-98 0 -182 19zM334 748q0 -328 158 -474l430 1022q-66 14 -117 15q-215 0 -343 -144.5 t-128 -418.5zM786 174q213 0 335 141.5t122 434.5q0 307 -143 450l-424 -1016q57 -10 110 -10z" />
<glyph unicode="&#xd9;" horiz-adv-x="1611" d="M1147 545v751q0 25 -6 32t-27 9l-129 15v131h547v-131l-137 -17q-23 -2 -28 -9t-5 -30v-786q0 -535 -561 -535q-289 0 -420 133.5t-131 407.5v780q0 25 -6 32t-27 9l-129 15v131h571v-131l-137 -17q-23 -2 -28 -9t-5 -30v-745q0 -197 75 -287t249 -90q176 0 255 84 t79 287zM987 1569l-432 196l94 172l402 -258z" />
<glyph unicode="&#xda;" horiz-adv-x="1611" d="M1147 545v751q0 25 -6 32t-27 9l-129 15v131h547v-131l-137 -17q-23 -2 -28 -9t-5 -30v-786q0 -535 -561 -535q-289 0 -420 133.5t-131 407.5v780q0 25 -6 32t-27 9l-129 15v131h571v-131l-137 -17q-23 -2 -28 -9t-5 -30v-745q0 -197 75 -287t249 -90q176 0 255 84 t79 287zM1108 1767l-432 -198l-64 112l402 258z" />
<glyph unicode="&#xdb;" horiz-adv-x="1611" d="M1147 545v751q0 25 -6 32t-27 9l-129 15v131h547v-131l-137 -17q-23 -2 -28 -9t-5 -30v-786q0 -535 -561 -535q-289 0 -420 133.5t-131 407.5v780q0 25 -6 32t-27 9l-129 15v131h571v-131l-137 -17q-23 -2 -28 -9t-5 -30v-745q0 -197 75 -287t249 -90q176 0 255 84 t79 287zM1069 1569l-244 170l-243 -170l-95 96l244 217h189l243 -217z" />
<glyph unicode="&#xdc;" horiz-adv-x="1611" d="M1147 545v751q0 25 -6 32t-27 9l-129 15v131h547v-131l-137 -17q-23 -2 -28 -9t-5 -30v-786q0 -535 -561 -535q-289 0 -420 133.5t-131 407.5v780q0 25 -6 32t-27 9l-129 15v131h571v-131l-137 -17q-23 -2 -28 -9t-5 -30v-745q0 -197 75 -287t249 -90q176 0 255 84 t79 287zM743 1724.5q0 -57.5 -34.5 -91.5t-92 -34t-93.5 34t-36 91.5t36 91t93.5 33.5t92 -33.5t34.5 -91zM1161 1724.5q0 -57.5 -34.5 -91.5t-92 -34t-92.5 34t-35 91.5t35 91t92.5 33.5t92 -33.5t34.5 -91z" />
<glyph unicode="&#xdd;" horiz-adv-x="1314" d="M1036 0h-714v131l198 14q20 2 26.5 9.5t6.5 31.5v379l-408 729q-14 27 -49 35l-92 23l21 131h518v-131l-156 -19l291 -559h10l293 559l-154 19l21 131h463v-131l-86 -23q-39 -10 -51 -39l-381 -721v-381q0 -25 5 -31.5t27 -9.5l211 -16v-131zM965 1767l-433 -198l-63 112 l401 258z" />
<glyph unicode="&#xde;" horiz-adv-x="1341" d="M831 0h-725v131l130 14q20 2 26 10.5t6 30.5v1108q0 25 -6 32t-26 9l-130 15v133h582v-131l-149 -17q-33 -4 -33 -41v-75h258q494 0 493 -420q0 -463 -561 -463h-190v-148q0 -25 5 -31.5t28 -9.5l292 -16v-131zM506 514h162q76 0 130 10.5t106 37t79 82.5t27 142 q0 141 -80 197.5t-240 56.5h-184v-526z" />
<glyph unicode="&#xdf;" horiz-adv-x="1320" d="M434 0h-385v133l117 12q20 2 26.5 9.5t6.5 31.5v932q0 240 125 346.5t374 106.5q461 0 461 -379q0 -260 -225 -348v-6q150 -31 230.5 -124t80.5 -292q0 -195 -110.5 -321t-305.5 -126q-174 0 -297 70l60 158q119 -55 213 -56q98 0 147 77t49 208q0 145 -69.5 222 t-229.5 77q-27 0 -100 -4v170l103 12q213 25 213 262q0 229 -232 230q-131 0 -191.5 -57.5t-60.5 -213.5v-1130z" />
<glyph unicode="&#xe0;" horiz-adv-x="1120" d="M1085 0h-321l-21 121l-6 2q-154 -147 -360 -148q-293 0 -293 291q0 152 93 229.5t284 94.5l260 20v105q0 106 -35 152t-145 46q-49 0 -78 -4t-57.5 -17t-41 -45t-12.5 -83l-221 20q0 295 414 295q225 0 316 -78.5t91 -287.5v-527q0 -25 5.5 -32t27.5 -9l100 -14v-131z M721 281v180l-195 -17q-113 -10 -156.5 -44.5t-43.5 -110.5q0 -72 32.5 -101.5t98.5 -29.5q141 0 264 123zM743 1243l-94 -88l-362 295l141 137z" />
<glyph unicode="&#xe1;" horiz-adv-x="1120" d="M1085 0h-321l-21 121l-6 2q-154 -147 -360 -148q-293 0 -293 291q0 152 93 229.5t284 94.5l260 20v105q0 106 -35 152t-145 46q-49 0 -78 -4t-57.5 -17t-41 -45t-12.5 -83l-221 20q0 295 414 295q225 0 316 -78.5t91 -287.5v-527q0 -25 5.5 -32t27.5 -9l100 -14v-131z M721 281v180l-195 -17q-113 -10 -156.5 -44.5t-43.5 -110.5q0 -72 32.5 -101.5t98.5 -29.5q141 0 264 123zM788 1450l-362 -295l-94 88l315 344z" />
<glyph unicode="&#xe2;" horiz-adv-x="1120" d="M1085 0h-321l-21 121l-6 2q-154 -147 -360 -148q-293 0 -293 291q0 152 93 229.5t284 94.5l260 20v105q0 106 -35 152t-145 46q-49 0 -78 -4t-57.5 -17t-41 -45t-12.5 -83l-221 20q0 295 414 295q225 0 316 -78.5t91 -287.5v-527q0 -25 5.5 -32t27.5 -9l100 -14v-131z M721 281v180l-195 -17q-113 -10 -156.5 -44.5t-43.5 -110.5q0 -72 32.5 -101.5t98.5 -29.5q141 0 264 123zM893 1253l-102 -90l-248 201l-248 -201l-102 90l256 256h188z" />
<glyph unicode="&#xe3;" horiz-adv-x="1120" d="M1085 0h-321l-21 121l-6 2q-154 -147 -360 -148q-293 0 -293 291q0 152 93 229.5t284 94.5l260 20v105q0 106 -35 152t-145 46q-49 0 -78 -4t-57.5 -17t-41 -45t-12.5 -83l-221 20q0 295 414 295q225 0 316 -78.5t91 -287.5v-527q0 -25 5.5 -32t27.5 -9l100 -14v-131z M721 281v180l-195 -17q-113 -10 -156.5 -44.5t-43.5 -110.5q0 -72 32.5 -101.5t98.5 -29.5q141 0 264 123zM909 1384l-47 -75q-37 -59 -66.5 -85t-68.5 -26q-35 0 -117 21q-207 57 -223 59q-18 4 -33 -10l-71 -74l-101 68l60 96q57 92 129 92q25 0 102 -18q184 -53 234 -62 q14 -2 28 10l66 72z" />
<glyph unicode="&#xe4;" horiz-adv-x="1120" d="M1085 0h-321l-21 121l-6 2q-154 -147 -360 -148q-293 0 -293 291q0 152 93 229.5t284 94.5l260 20v105q0 106 -35 152t-145 46q-49 0 -78 -4t-57.5 -17t-41 -45t-12.5 -83l-221 20q0 295 414 295q225 0 316 -78.5t91 -287.5v-527q0 -25 5.5 -32t27.5 -9l100 -14v-131z M721 281v180l-195 -17q-113 -10 -156.5 -44.5t-43.5 -110.5q0 -72 32.5 -101.5t98.5 -29.5q141 0 264 123zM461 1357.5q0 -57.5 -35 -91t-92.5 -33.5t-93 33.5t-35.5 91.5q0 55 35.5 89t93 34t92.5 -33t35 -90.5zM879 1357.5q0 -57.5 -35 -91t-92.5 -33.5t-92 33.5t-34.5 91 t34.5 90.5t92 33t92.5 -33t35 -90.5z" />
<glyph unicode="&#xe5;" horiz-adv-x="1120" d="M1085 0h-321l-21 121l-6 2q-154 -147 -360 -148q-293 0 -293 291q0 152 93 229.5t284 94.5l260 20v105q0 106 -35 152t-145 46q-49 0 -78 -4t-57.5 -17t-41 -45t-12.5 -83l-221 20q0 295 414 295q225 0 316 -78.5t91 -287.5v-527q0 -25 5.5 -32t27.5 -9l100 -14v-131z M721 281v180l-195 -17q-113 -10 -156.5 -44.5t-43.5 -110.5q0 -72 32.5 -101.5t98.5 -29.5q141 0 264 123zM723 1348q0 -80 -50 -129.5t-130 -49.5q-82 0 -132.5 47.5t-50.5 126.5q0 84 52.5 133.5t130.5 49.5t129 -48t51 -130zM543 1272q70 0 69.5 75.5t-69.5 75.5 q-72 0 -72 -77q0 -74 72 -74z" />
<glyph unicode="&#xe6;" horiz-adv-x="1691" d="M1536 238l66 -166q-188 -96 -392 -97q-254 0 -376 162q-211 -162 -431 -162q-319 0 -319 289q0 154 93 232.5t284 93.5l260 20v105q0 106 -35 152t-145 46q-49 0 -78 -4t-57.5 -17t-41 -45t-12.5 -83l-221 20q0 295 401 295q137 0 218 -34.5t122 -114.5q117 150 334 149 q414 0 414 -485q0 -47 -4 -121h-664q10 -158 76 -232.5t209 -74.5q137 0 299 72zM721 461l-195 -17q-115 -8 -157.5 -43.5t-42.5 -113.5q0 -133 135 -133q72 0 158 35.5t137 91.5q-25 76 -35 180zM952 637h434q-2 264 -202 264q-96 0 -160 -64.5t-72 -199.5z" />
<glyph unicode="&#xe7;" horiz-adv-x="1013" d="M383 -492l14 119q29 -4 58 -4q145 0 145 107q0 88 -139 90l22 164q-207 29 -309 170t-102 362q0 279 148.5 421t395.5 142q207 0 334 -73v-291l-170 8l-24 135q-2 20 -23 29q-47 18 -127 18q-129 0 -209 -89t-80 -281q0 -371 308 -371q141 0 260 63l67 -159 q-133 -82 -340 -93l-8 -67q156 -33 156 -174q0 -96 -72 -165t-217 -69q-65 0 -88 8z" />
<glyph unicode="&#xe8;" horiz-adv-x="1060" d="M905 236l66 -164q-188 -96 -393 -97q-506 0 -506 560q0 266 135 405t348 139q434 0 434 -493q0 -61 -6 -119h-661q8 -150 73.5 -226.5t208.5 -76.5q129 0 301 72zM324 637h430q0 264 -203 264q-94 0 -156.5 -65.5t-70.5 -198.5zM750 1243l-95 -88l-362 295l141 137z" />
<glyph unicode="&#xe9;" horiz-adv-x="1060" d="M905 236l66 -164q-188 -96 -393 -97q-506 0 -506 560q0 266 135 405t348 139q434 0 434 -493q0 -61 -6 -119h-661q8 -150 73.5 -226.5t208.5 -76.5q129 0 301 72zM324 637h430q0 264 -203 264q-94 0 -156.5 -65.5t-70.5 -198.5zM795 1450l-363 -295l-94 88l315 344z" />
<glyph unicode="&#xea;" horiz-adv-x="1060" d="M905 236l66 -164q-188 -96 -393 -97q-506 0 -506 560q0 266 135 405t348 139q434 0 434 -493q0 -61 -6 -119h-661q8 -150 73.5 -226.5t208.5 -76.5q129 0 301 72zM324 637h430q0 264 -203 264q-94 0 -156.5 -65.5t-70.5 -198.5zM899 1253l-102 -90l-248 201l-248 -201 l-102 90l256 256h188z" />
<glyph unicode="&#xeb;" horiz-adv-x="1060" d="M905 236l66 -164q-188 -96 -393 -97q-506 0 -506 560q0 266 135 405t348 139q434 0 434 -493q0 -61 -6 -119h-661q8 -150 73.5 -226.5t208.5 -76.5q129 0 301 72zM324 637h430q0 264 -203 264q-94 0 -156.5 -65.5t-70.5 -198.5zM467 1357.5q0 -57.5 -35 -91t-92 -33.5 t-93 33.5t-36 91.5q0 55 36 89t93 34t92 -33t35 -90.5zM885 1357.5q0 -57.5 -35 -91t-92.5 -33.5t-92 33.5t-34.5 91t34.5 90.5t92 33t92.5 -33t35 -90.5z" />
<glyph unicode="&#xec;" horiz-adv-x="624" d="M592 0h-545v129l123 16q20 2 26.5 10.5t6.5 30.5v660q0 35 -27 43l-113 39l21 131h354v-873q0 -25 5.5 -32t27.5 -9l121 -14v-131zM500 1233l-94 -88l-363 295l141 137z" />
<glyph unicode="&#xed;" horiz-adv-x="624" d="M592 0h-545v129l123 16q20 2 26.5 10.5t6.5 30.5v660q0 35 -27 43l-113 39l21 131h354v-873q0 -25 5.5 -32t27.5 -9l121 -14v-131zM524 1440l-362 -295l-94 88l315 344z" />
<glyph unicode="&#xee;" horiz-adv-x="624" d="M604 1249l-102 -90l-223 201l-224 -201l-102 90l231 256h189zM592 0h-545v129l123 16q20 2 26.5 10.5t6.5 30.5v660q0 35 -27 43l-113 39l21 131h354v-873q0 -25 5.5 -32t27.5 -9l121 -14v-131z" />
<glyph unicode="&#xef;" horiz-adv-x="624" d="M592 0h-545v129l123 16q20 2 26.5 10.5t6.5 30.5v660q0 35 -27 43l-113 39l21 131h354v-873q0 -25 5.5 -32t27.5 -9l121 -14v-131zM197 1319q0 -57 -35 -91t-92.5 -34t-93 34t-35.5 91q0 55 35.5 89t93 34t92.5 -33t35 -90zM614 1319q0 -57 -34.5 -91t-92 -34t-92.5 34 t-35 91t35 90t92.5 33t92 -33t34.5 -90z" />
<glyph unicode="&#xf0;" horiz-adv-x="1163" d="M467 1110l-92 145l147 80q-104 57 -227 86l70 172q223 -39 374 -139l209 113l80 -150l-151 -84q211 -238 210 -684q0 -139 -26.5 -253.5t-83.5 -212t-162.5 -153t-249.5 -55.5q-489 0 -489 543q0 221 124 367.5t361 146.5q145 0 256 -67q-35 141 -147 256zM319 518 q0 -369 261 -368q274 0 274 479q0 39 -8 129q-39 39 -113 68.5t-149 29.5q-265 0 -265 -338z" />
<glyph unicode="&#xf1;" horiz-adv-x="1286" d="M1245 0h-516v129l102 12q33 4 33 41v475q0 111 -27.5 168.5t-117.5 57.5q-133 0 -281 -107v-590q0 -25 5.5 -32t27.5 -9l109 -14v-131h-508v133l98 12q20 2 26.5 10.5t6.5 30.5v660q0 35 -27 43l-113 39l21 131h303l16 -113l9 -2q199 135 383 135q305 0 305 -374v-519 q0 -25 5 -32t28 -9l112 -14v-131zM989 1384l-47 -75q-37 -59 -66.5 -85t-68.5 -26q-35 0 -117 21q-207 57 -223 59q-18 4 -33 -10l-72 -74l-100 68l60 96q57 92 129 92q25 0 102 -18q184 -53 233 -62q16 -2 29 10l66 72z" />
<glyph unicode="&#xf2;" horiz-adv-x="1173" d="M582 -25q-266 0 -388 145.5t-122 397.5q0 262 133 411.5t397 149.5q258 0 379 -143t121 -391q0 -268 -129 -419t-391 -151zM587.5 150q270.5 0 270.5 382q0 193 -64.5 281t-197.5 88q-279 0 -279 -371q0 -380 270.5 -380zM803 1243l-94 -88l-363 295l141 137z" />
<glyph unicode="&#xf3;" horiz-adv-x="1173" d="M582 -25q-266 0 -388 145.5t-122 397.5q0 262 133 411.5t397 149.5q258 0 379 -143t121 -391q0 -268 -129 -419t-391 -151zM587.5 150q270.5 0 270.5 382q0 193 -64.5 281t-197.5 88q-279 0 -279 -371q0 -380 270.5 -380zM848 1450l-363 -295l-94 88l316 344z" />
<glyph unicode="&#xf4;" horiz-adv-x="1173" d="M582 -25q-266 0 -388 145.5t-122 397.5q0 262 133 411.5t397 149.5q258 0 379 -143t121 -391q0 -268 -129 -419t-391 -151zM587.5 150q270.5 0 270.5 382q0 193 -64.5 281t-197.5 88q-279 0 -279 -371q0 -380 270.5 -380zM952 1253l-102 -90l-248 201l-248 -201l-102 90 l256 256h188z" />
<glyph unicode="&#xf5;" horiz-adv-x="1173" d="M582 -25q-266 0 -388 145.5t-122 397.5q0 262 133 411.5t397 149.5q258 0 379 -143t121 -391q0 -268 -129 -419t-391 -151zM587.5 150q270.5 0 270.5 382q0 193 -64.5 281t-197.5 88q-279 0 -279 -371q0 -380 270.5 -380zM969 1384l-47 -75q-37 -59 -67 -85t-69 -26 q-35 0 -116 21q-207 57 -224 59q-18 4 -32 -10l-72 -74l-100 68l59 96q57 92 129 92q25 0 102 -18q184 -53 234 -62q16 -2 29 10l65 72z" />
<glyph unicode="&#xf6;" horiz-adv-x="1173" d="M582 -25q-266 0 -388 145.5t-122 397.5q0 262 133 411.5t397 149.5q258 0 379 -143t121 -391q0 -268 -129 -419t-391 -151zM587.5 150q270.5 0 270.5 382q0 193 -64.5 281t-197.5 88q-279 0 -279 -371q0 -380 270.5 -380zM520 1357.5q0 -57.5 -34.5 -91t-92 -33.5 t-93.5 33.5t-36 91.5q0 55 36 89t93.5 34t92 -33t34.5 -90.5zM938 1357.5q0 -57.5 -35 -91t-92 -33.5t-92 33.5t-35 91t35 90.5t92 33t92 -33t35 -90.5z" />
<glyph unicode="&#xf7;" horiz-adv-x="1167" d="M717 332q0 -135 -143.5 -135t-143.5 135q0 63 37 99t106.5 36t106.5 -36t37 -99zM973 561h-780v193h780v-193zM717 985q0 -135 -143.5 -135t-143.5 135q0 63 37 99t106.5 36t106.5 -36t37 -99z" />
<glyph unicode="&#xf8;" horiz-adv-x="1173" d="M377 -174h-199l98 223q-205 127 -204 469q0 262 133 411.5t397 149.5q61 0 127 -10l64 141h196l-90 -204q203 -127 203 -461q0 -268 -129 -419t-391 -151q-74 0 -136 13zM588 150q270 0 270 382q0 172 -53 263l-283 -639q31 -6 66 -6zM317 530q0 -174 56 -268l280 635 q-37 4 -57 4q-279 0 -279 -371z" />
<glyph unicode="&#xf9;" horiz-adv-x="1282" d="M1227 0h-324l-18 125l-6 2q-190 -152 -383 -152q-162 0 -228.5 83t-66.5 266v532q0 25 -5.5 33t-27.5 12l-105 25l19 133h354v-684q0 -111 28 -161t109 -50q145 0 285 143v549q0 25 -5 33t-28 12l-98 25l18 133h349v-873q0 -37 26 -41l107 -14v-131zM819 1243l-94 -88 l-363 295l142 137z" />
<glyph unicode="&#xfa;" horiz-adv-x="1282" d="M1227 0h-324l-18 125l-6 2q-190 -152 -383 -152q-162 0 -228.5 83t-66.5 266v532q0 25 -5.5 33t-27.5 12l-105 25l19 133h354v-684q0 -111 28 -161t109 -50q145 0 285 143v549q0 25 -5 33t-28 12l-98 25l18 133h349v-873q0 -37 26 -41l107 -14v-131zM864 1450l-362 -295 l-94 88l315 344z" />
<glyph unicode="&#xfb;" horiz-adv-x="1282" d="M1227 0h-324l-18 125l-6 2q-190 -152 -383 -152q-162 0 -228.5 83t-66.5 266v532q0 25 -5.5 33t-27.5 12l-105 25l19 133h354v-684q0 -111 28 -161t109 -50q145 0 285 143v549q0 25 -5 33t-28 12l-98 25l18 133h349v-873q0 -37 26 -41l107 -14v-131zM969 1253l-103 -90 l-248 201l-247 -201l-103 90l256 256h189z" />
<glyph unicode="&#xfc;" horiz-adv-x="1282" d="M1227 0h-324l-18 125l-6 2q-190 -152 -383 -152q-162 0 -228.5 83t-66.5 266v532q0 25 -5.5 33t-27.5 12l-105 25l19 133h354v-684q0 -111 28 -161t109 -50q145 0 285 143v549q0 25 -5 33t-28 12l-98 25l18 133h349v-873q0 -37 26 -41l107 -14v-131zM537 1357.5 q0 -57.5 -35 -91t-92.5 -33.5t-93 33.5t-35.5 91.5q0 55 35.5 89t93 34t92.5 -33t35 -90.5zM954 1357.5q0 -57.5 -34.5 -91t-92 -33.5t-92.5 33.5t-35 91t35 90.5t92.5 33t92 -33t34.5 -90.5z" />
<glyph unicode="&#xfd;" horiz-adv-x="1222" d="M817 -434h-606v135l145 16q25 2 34 11.5t22 33.5l104 240l-377 868q-10 27 -43 35l-84 19l27 135h477v-135l-133 -17l256 -633h8l254 633l-135 17l22 135h422v-135l-67 -11q-39 -6 -51 -34l-480 -1160l205 -20v-133zM868 1450l-362 -295l-94 88l315 344z" />
<glyph unicode="&#xfe;" horiz-adv-x="1216" d="M643 -434h-584v133l84 12q20 2 27.5 11.5t7.5 31.5v1579q0 35 -26 43l-115 39l20 131h355v-596q182 129 342 129q385 0 385 -516q0 -109 -19.5 -205t-63.5 -186t-131 -143.5t-208 -53.5q-182 0 -307 109v-330q0 -25 5 -32t27 -9l201 -16v-131zM414 780v-514 q111 -102 231 -102q252 0 252 385q0 338 -223 338q-127 -1 -260 -107z" />
<glyph unicode="&#xff;" horiz-adv-x="1222" d="M817 -434h-606v135l145 16q25 2 34 11.5t22 33.5l104 240l-377 868q-10 27 -43 35l-84 19l27 135h477v-135l-133 -17l256 -633h8l254 633l-135 17l22 135h422v-135l-67 -11q-39 -6 -51 -34l-480 -1160l205 -20v-133zM541 1357.5q0 -57.5 -35 -91t-92.5 -33.5t-93 33.5 t-35.5 91.5q0 55 35.5 89t93 34t92.5 -33t35 -90.5zM958 1357.5q0 -57.5 -34.5 -91t-92 -33.5t-92 33.5t-34.5 91t34.5 90.5t92 33t92 -33t34.5 -90.5z" />
<glyph unicode="&#x152;" horiz-adv-x="2029" d="M1950 0h-1035q-96 -25 -206 -25q-336 0 -479.5 202t-143.5 568q0 346 162 555t489 209q106 0 207 -26h961v-369l-174 8l-29 158q-6 27 -35 27h-475q141 -162 151 -471h443v-179h-445q-20 -324 -163 -483h534q29 0 33 23l33 180h172v-377zM718.5 182q194.5 0 287 138.5 t92.5 429.5q0 553 -365 553q-188 0 -289.5 -143.5t-101.5 -411.5q0 -287 91 -426.5t285.5 -139.5z" />
<glyph unicode="&#x153;" horiz-adv-x="1832" d="M1677 236l66 -164q-188 -96 -379 -97q-287 0 -395 195q-127 -195 -404 -195q-252 0 -372.5 145.5t-120.5 403.5t131 406.5t383 148.5q279 0 393 -188q117 188 367 188q193 0 304 -119.5t111 -373.5q0 -35 -4 -113h-663q12 -154 76.5 -231.5t207.5 -77.5q127 0 299 72z M578 150q276 0 276 382q0 188 -63.5 276.5t-194.5 88.5q-276 0 -277 -367q1 -380 259 -380zM1096 637h430q0 264 -203 264q-209 0 -227 -264z" />
<glyph unicode="&#x178;" horiz-adv-x="1314" d="M1036 0h-714v131l198 14q20 2 26.5 9.5t6.5 31.5v379l-408 729q-14 27 -49 35l-92 23l21 131h518v-131l-156 -19l291 -559h10l293 559l-154 19l21 131h463v-131l-86 -23q-39 -10 -51 -39l-381 -721v-381q0 -25 5 -31.5t27 -9.5l211 -16v-131zM600 1724.5 q0 -57.5 -35 -91.5t-92 -34t-93 34t-36 91.5t36 91t93 33.5t92 -33.5t35 -91zM1018 1724.5q0 -57.5 -35 -91.5t-92 -34t-92 34t-35 91.5t35 91t92 33.5t92 -33.5t35 -91z" />
<glyph unicode="&#x2c6;" d="M862 1253l-102 -90l-248 201l-248 -201l-102 90l256 256h188z" />
<glyph unicode="&#x2dc;" d="M877 1384l-48 -75q-37 -59 -66.5 -85t-68.5 -26q-35 0 -116 21q-207 57 -224 59q-18 4 -32 -10l-72 -74l-100 68l59 96q57 92 129 92q25 0 102 -18q184 -53 234 -62q14 -2 28 10l66 72z" />
<glyph unicode="&#x2000;" horiz-adv-x="970" />
<glyph unicode="&#x2001;" horiz-adv-x="1943" />
<glyph unicode="&#x2002;" horiz-adv-x="970" />
<glyph unicode="&#x2003;" horiz-adv-x="1943" />
<glyph unicode="&#x2004;" horiz-adv-x="647" />
<glyph unicode="&#x2005;" horiz-adv-x="485" />
<glyph unicode="&#x2006;" horiz-adv-x="323" />
<glyph unicode="&#x2007;" horiz-adv-x="323" />
<glyph unicode="&#x2008;" horiz-adv-x="241" />
<glyph unicode="&#x2009;" horiz-adv-x="387" />
<glyph unicode="&#x200a;" horiz-adv-x="106" />
<glyph unicode="&#x2010;" horiz-adv-x="649" d="M602 489h-555v213h555v-213z" />
<glyph unicode="&#x2011;" horiz-adv-x="649" d="M602 489h-555v213h555v-213z" />
<glyph unicode="&#x2012;" horiz-adv-x="649" d="M602 489h-555v213h555v-213z" />
<glyph unicode="&#x2013;" horiz-adv-x="1021" d="M1022 489h-1022v173h1022v-173z" />
<glyph unicode="&#x2014;" horiz-adv-x="2048" d="M2048 489h-2048v173h2048v-173z" />
<glyph unicode="&#x2018;" horiz-adv-x="409" d="M354 1290l-41 -170q-115 2 -172 28t-57 103q0 43 33 113l102 207l107 -35l-52 -199q-6 -16 11 -22z" />
<glyph unicode="&#x2019;" horiz-adv-x="409" d="M193 1120l-105 33l51 199q6 16 -10 22l-70 25l41 172q115 -4 172.5 -29.5t57.5 -103.5q0 -45 -33 -111z" />
<glyph unicode="&#x201a;" horiz-adv-x="397" d="M205 -260l-105 33l52 198q2 16 -11 23l-69 24l41 172q115 -4 172 -29.5t57 -103.5q0 -41 -35 -110z" />
<glyph unicode="&#x201c;" horiz-adv-x="737" d="M354 1290l-41 -170q-115 2 -172 28t-57 103q0 43 33 113l102 207l107 -35l-52 -199q-6 -16 11 -22zM682 1290l-41 -170q-115 2 -172 28t-57 103q0 43 32 113l103 207l106 -35l-51 -199q-6 -16 10 -22z" />
<glyph unicode="&#x201d;" horiz-adv-x="737" d="M193 1120l-105 33l51 199q6 16 -10 22l-70 25l41 172q115 -4 172.5 -29.5t57.5 -103.5q0 -45 -33 -111zM520 1120l-104 33l51 199q6 16 -10 22l-70 25l41 172q115 -4 172 -29.5t57 -103.5q0 -45 -32 -111z" />
<glyph unicode="&#x201e;" horiz-adv-x="724" d="M205 -260l-105 33l52 198q2 16 -11 23l-69 24l41 172q115 -4 172 -29.5t57 -103.5q0 -41 -35 -110zM532 -260l-104 33l51 198q2 16 -10 23l-70 24l41 172q115 -4 172.5 -29.5t57.5 -103.5q0 -41 -35 -110z" />
<glyph unicode="&#x2022;" horiz-adv-x="808" d="M696 594q0 -285 -293 -285q-291 0 -290 285q0 139 74.5 211t215.5 72q293 0 293 -283z" />
<glyph unicode="&#x2026;" horiz-adv-x="1261" d="M381 116.5q0 -141.5 -150 -141.5q-152 0 -151.5 141.5t151.5 141.5q150 0 150 -141.5zM797 116.5q0 -141.5 -150 -141.5q-152 0 -151.5 141.5t151.5 141.5q150 0 150 -141.5zM1200 116.5q0 -141.5 -149 -141.5q-152 0 -152 141.5t152 141.5q149 0 149 -141.5z" />
<glyph unicode="&#x202f;" horiz-adv-x="387" />
<glyph unicode="&#x2039;" horiz-adv-x="571" d="M479 211h-198l-179 317l183 308h200l-157 -283q-12 -18 -2 -39z" />
<glyph unicode="&#x203a;" horiz-adv-x="569" d="M289 211h-201l154 293q12 20 2 39l-158 293h201l180 -314z" />
<glyph unicode="&#x205f;" horiz-adv-x="485" />
<glyph unicode="&#x20ac;" horiz-adv-x="1130" d="M770 707h-364v-50q0 -51 2 -75h344l-27 -152h-299q57 -274 287 -274q86 0 125 16q23 10 26 35l29 155l164 11v-322q-49 -27 -153.5 -51.5t-211.5 -24.5q-442 0 -518 455h-174l29 152h129v125h-113l29 151h102q45 236 190.5 355.5t346.5 119.5q102 0 198.5 -23.5 t147.5 -54.5v-317l-164 12l-29 152q-4 25 -26 35q-43 16 -127 16q-233 0 -291 -295h375z" />
<glyph unicode="&#x2122;" horiz-adv-x="1714" d="M578 713h-377v84l116 10v573h-161l-17 -108h-82v211h658v-211h-84l-15 108h-163v-573l125 -10v-84zM1665 713h-303v82l92 10v428l-184 -354h-105l-180 356v-430l98 -10v-82h-303v82l80 10v581l-80 9v88h217l226 -465l235 465h203v-88l-82 -9v-581l86 -10v-82z" />
<glyph unicode="&#xe000;" horiz-adv-x="1060" d="M0 1060h1060v-1060h-1060v1060z" />
<glyph unicode="&#xfb01;" horiz-adv-x="1320" d="M1288 0h-545v129l129 16q18 2 22.5 10.5t4.5 28.5v678q0 18 -4 23.5t-23 5.5h-407v-703q0 -23 5 -29.5t28 -8.5l155 -19v-131h-581v131l125 14q23 2 27.5 10.5t4.5 28.5v686q0 20 -16 21h-143v168h159v133q0 205 113 291t371 86q100 0 161.5 -8.5t121 -35t88 -85 t30.5 -152.5l-223 -26q-2 92 -37 117.5t-152 25.5q-139 0 -188 -42t-49 -149v-133q0 -10 1 -14t5 -6t14 -2h650v-873q0 -25 5 -32t27 -9l121 -14v-131z" />
<glyph unicode="&#xfb02;" horiz-adv-x="1320" d="M1282 0h-532v129l116 16q20 2 26.5 10.5t6.5 30.5v1098q0 76 -36 98.5t-154 22.5q-150 0 -197 -46t-47 -157v-123q0 -20 16 -20h310v-168h-326v-698q0 -25 5 -32t28 -9l161 -21v-131h-587v133l125 12q20 2 26 9.5t6 31.5v684q0 20 -16 21h-143v168h159v125q0 211 110 298 t388 87q92 0 141.5 -3t109.5 -19.5t88 -49.5t48.5 -92t20.5 -150v-1069q0 -25 5 -32t27 -9l115 -14v-131z" />
<glyph unicode="&#xfb03;" horiz-adv-x="1992" d="M1958 0h-545v129l129 16q18 2 22.5 10.5t4.5 28.5v678q0 18 -4 23.5t-23 5.5h-407v-703q0 -23 5 -29.5t27 -8.5l156 -19v-131h-582v131l125 14q23 2 28 10.5t5 28.5v686q0 20 -16 21h-418v-698q0 -25 5 -32t28 -9l161 -21v-131h-587v133l125 12q20 2 26 9.5t6 31.5v684 q0 20 -16 21h-143v168h159v106q0 373 418 373q233 0 324 -96q106 127 411 127q100 0 162 -8.5t121 -35t88 -85t31 -152.5l-223 -26q-2 92 -37 117.5t-152 25.5q-139 0 -188 -42t-49 -149v-133q0 -10 1 -14t5 -6t14 -2h649v-873q0 -25 5.5 -32t27.5 -9l121 -14v-131z M465 1079q0 -20 16 -20h418v119q0 104 -57.5 150t-173.5 46q-125 0 -164 -45t-39 -143v-107z" />
<glyph unicode="&#xfb04;" horiz-adv-x="1992" d="M1952 0h-533v129l117 16q20 2 26.5 10.5t6.5 30.5v1098q0 76 -36 98.5t-155 22.5q-150 0 -196.5 -46t-46.5 -157v-123q0 -20 16 -20h309v-168h-325v-698q0 -25 5 -32t27 -9l162 -21v-131h-588v133l125 12q20 2 26.5 9.5t6.5 31.5v684q0 20 -16 21h-418v-698q0 -25 5 -32 t28 -9l161 -21v-131h-587v133l125 12q20 2 26 9.5t6 31.5v684q0 20 -16 21h-143v168h159v106q0 373 418 373q231 0 322 -96q102 127 428 127q92 0 141 -3t109.5 -19.5t88 -49.5t48 -92t20.5 -150v-1069q0 -25 5.5 -32t27.5 -9l115 -14v-131zM465 1079q0 -20 16 -20h418v119 q0 104 -57.5 150t-173.5 46q-125 0 -164 -45t-39 -143v-107z" />
<glyph />
</font>
</defs>
</svg>
